<?xml version="1.0" encoding="iso-8859-1"?>
<!-- Generator: Adobe Illustrator 19.2.1, SVG Export Plug-In . SVG Version: 6.00 Build 0)  -->
<svg version="1.1" xmlns="http://www.w3.org/2000/svg" xmlns:xlink="http://www.w3.org/1999/xlink" x="0px" y="0px"
	 viewBox="0 0 77 77" style="enable-background:new 0 0 77 77;" xml:space="preserve">
<g id="_x31_-eko-iksi">
	<g id="_x31_">
		<g>
			<path style="fill:#7E2559;" d="M38.5,1.22c20.556,0,37.28,16.724,37.28,37.28S59.056,75.78,38.5,75.78S1.22,59.056,1.22,38.5
				S17.944,1.22,38.5,1.22 M38.5,0C17.237,0,0,17.237,0,38.5C0,59.763,17.237,77,38.5,77C59.763,77,77,59.763,77,38.5
				C77,17.237,59.763,0,38.5,0L38.5,0z"/>
		</g>
	</g>
	<g id="&#x432;&#x435;&#x43D;&#x435;&#x440;&#x430;">
		<g id="&#x42D;&#x43B;&#x43B;&#x438;&#x43F;&#x441;_9_2_" style="opacity:0.902;">
			<g>
				<path style="fill:#9F2865;" d="M38,25.999c5.514,0,10,4.323,10,9.636c0,5.313-4.486,9.635-10,9.635s-10-4.322-10-9.635
					C28,30.322,32.486,25.999,38,25.999 M38,19.999c-8.837,0-16,7.001-16,15.636c0,8.635,7.163,15.635,16,15.635s16-7,16-15.635
					C54,27,46.837,19.999,38,19.999L38,19.999z"/>
			</g>
		</g>
		<g id="&#x424;&#x438;&#x433;&#x443;&#x440;&#x430;_14_1_" style="opacity:0.902;">
			<g>
				<polygon style="fill:#9F2865;" points="39.553,50.24 36.331,50.24 36.331,58.37 30.53,58.37 30.53,61.497 36.331,61.497 
					36.331,69.001 39.553,69.001 39.553,61.497 45.998,61.497 45.998,58.37 39.553,58.37 39.553,50.24 				"/>
			</g>
		</g>
		<g id="&#x42D;&#x43B;&#x43B;&#x438;&#x43F;&#x441;_11_1_" style="opacity:0.3412;">
			<g>
				<circle style="fill-rule:evenodd;clip-rule:evenodd;fill:#D95397;" cx="38.5" cy="35.5" r="10.5"/>
			</g>
		</g>
		<g id="&#x41F;&#x440;&#x44F;&#x43C;&#x43E;&#x443;&#x433;&#x43E;&#x43B;&#x44C;&#x43D;&#x438;&#x43A;_1_2_">
			<g>
				<polygon style="fill:#1C9CAD;" points="16.379,28.469 3.51,28.469 3.51,31.946 20.473,31.946 				"/>
			</g>
		</g>
		<g id="&#x41F;&#x440;&#x44F;&#x43C;&#x43E;&#x443;&#x433;&#x43E;&#x43B;&#x44C;&#x43D;&#x438;&#x43A;_2_2_">
			<g>
				<path style="fill:#1C9CAD;" d="M21.058,38.323H3.51v4.637h12.869c0,0,2.932-1.31,4.095-2.318
					C21.65,39.621,21.058,38.323,21.058,38.323z M20.333,30.208c-1.153-1.008-4.061-2.319-4.061-2.319H3.51v4.637h17.404
					C20.913,32.526,21.5,31.228,20.333,30.208z"/>
			</g>
		</g>
	</g>
	<g id="&#x442;&#x440;&#x443;&#x431;&#x43A;&#x430;">
		<g id="&#x442;&#x440;&#x443;&#x431;&#x43A;&#x430;_1_">
			<g>
				<path style="fill:#1C9CAD;" d="M15.209,29.889c1.321,0,4.569,1.237,5.019,2.033v0.024v6.956v0.05l0.003,0.05
					c0.006,0.118-0.11,0.315-0.31,0.525c-1.161,1.221-3.992,2.011-4.712,2.011H4.949c0.001-0.366,0-0.779,0-1.246
					c-0.002-1.888-0.01-4.324-0.018-6.538c-0.005-1.381-0.01-2.786-0.012-3.867H15.209 M15.209,27.889H2.925
					c-0.033,0.145,0.068,15.65,0,15.65h12.284c1.615,0,7.166-1.732,7.019-4.637v-6.956C22.374,29.476,16.824,27.889,15.209,27.889
					L15.209,27.889z"/>
			</g>
		</g>
		<g id="&#x424;&#x438;&#x433;&#x443;&#x440;&#x430;_15">
			<g>
				<path style="fill:#1C9CAD;" d="M17.549,32.946c1.371,0,2.505,0.452,3.095,0.745v3.478c-0.563,0.289-1.641,0.733-2.948,0.733
					H4.51v-4.956H17.549 M17.549,31.946c-5.349,0-14.039,0-14.039,0v6.956c0,0,8.85,0,14.185,0c2.301,0,3.948-1.16,3.948-1.16
					v-4.637C21.643,33.106,19.926,31.946,17.549,31.946L17.549,31.946z"/>
			</g>
		</g>
	</g>
	<g id="&#x438;&#x433;&#x43B;&#x430;">
		<g id="&#x424;&#x438;&#x433;&#x443;&#x440;&#x430;_16">
			<g>
				<path style="fill:#1C9CAD;" d="M73.289,34.106v2.637H48.314l-3.327-2.637H73.289 M74.289,33.106H42.116l5.85,4.637h26.323
					V33.106L74.289,33.106z"/>
			</g>
		</g>
		<g id="&#x424;&#x438;&#x433;&#x443;&#x440;&#x430;_17">
			<g>
				<path style="fill:#1C9CAD;" d="M73.289,35.265v0.318H47.144l-0.401-0.318H73.289 M74.289,34.265H43.871l2.925,2.318h27.493
					V34.265L74.289,34.265z"/>
			</g>
		</g>
		<g id="&#x424;&#x438;&#x433;&#x443;&#x440;&#x430;_18">
			<g>
				<polygon style="fill:#1C9CAD;" points="73.704,36.583 47.381,36.583 47.381,37.163 73.704,37.163 73.704,36.583 				"/>
			</g>
		</g>
		<g id="&#x424;&#x438;&#x433;&#x443;&#x440;&#x430;_19">
			<g>
				<polygon style="fill:#1C9CAD;" points="73.704,33.685 43.871,33.685 43.871,34.265 73.704,34.265 73.704,33.685 				"/>
			</g>
		</g>
	</g>
</g>
<g id="&#x421;&#x43B;&#x43E;&#x439;_1">
</g>
</svg>
