<?xml version="1.0" encoding="iso-8859-1"?>
<!-- Generator: Adobe Illustrator 19.2.1, SVG Export Plug-In . SVG Version: 6.00 Build 0)  -->
<svg version="1.1" xmlns="http://www.w3.org/2000/svg" xmlns:xlink="http://www.w3.org/1999/xlink" x="0px" y="0px"
	 viewBox="0 0 77 77" style="enable-background:new 0 0 77 77;" xml:space="preserve">
<g id="_x31_0-cryobank">
	<g id="_x31_0">
		<g>
			<path style="fill:#7E2559;" d="M38.5,1.22c20.556,0,37.28,16.724,37.28,37.28S59.056,75.78,38.5,75.78S1.22,59.056,1.22,38.5
				S17.944,1.22,38.5,1.22 M38.5,0C17.237,0,0,17.237,0,38.5S17.237,77,38.5,77C59.763,77,77,59.763,77,38.5S59.763,0,38.5,0L38.5,0
				z"/>
		</g>
	</g>
	<g id="&#x43F;&#x440;&#x43E;&#x431;&#x438;&#x440;&#x43A;&#x438;">
		
			<g id="&#x41F;&#x440;&#x44F;&#x43C;&#x43E;&#x443;&#x433;&#x43E;&#x43B;&#x44C;&#x43D;&#x438;&#x43A;_x2C__&#x441;&#x43A;&#x440;&#x443;&#x433;&#x43B;._&#x443;&#x433;&#x43B;&#x44B;_6">
			<g>
				<path style="fill-rule:evenodd;clip-rule:evenodd;fill:#9F2865;" d="M10.208,23.931c-0.431,0-0.781-0.353-0.781-0.786v-0.257
					c0-0.434,0.35-0.786,0.781-0.786H67.35c0.431,0,0.781,0.353,0.781,0.786v0.257c0,0.434-0.351,0.786-0.781,0.786H10.208z"/>
			</g>
			<g>
				<path style="fill:#9F2865;" d="M67.349,22.601c0.155,0,0.281,0.128,0.281,0.286v0.257c0,0.158-0.126,0.286-0.281,0.286H10.209
					c-0.155,0-0.281-0.129-0.281-0.286v-0.257c0-0.158,0.126-0.286,0.281-0.286H67.349 M67.349,21.601H10.209
					c-0.708,0-1.281,0.576-1.281,1.286v0.257c0,0.711,0.574,1.286,1.281,1.286h57.141c0.708,0,1.281-0.576,1.281-1.286v-0.257
					C68.63,22.177,68.057,21.601,67.349,21.601L67.349,21.601z"/>
			</g>
		</g>
		
			<g id="&#x41F;&#x440;&#x44F;&#x43C;&#x43E;&#x443;&#x433;&#x43E;&#x43B;&#x44C;&#x43D;&#x438;&#x43A;_x2C__&#x441;&#x43A;&#x440;&#x443;&#x433;&#x43B;._&#x443;&#x433;&#x43B;&#x44B;_6_&#x43A;&#x43E;&#x43F;&#x438;&#x44F;">
			<g>
				<path style="fill-rule:evenodd;clip-rule:evenodd;fill:#9F2865;" d="M10.208,56.086c-0.318,0-0.781-0.67-0.781-1.721v-0.444
					c0-1.052,0.462-1.723,0.781-1.723H67.35c0.318,0,0.781,0.671,0.781,1.723v0.444c0,1.051-0.463,1.721-0.781,1.721H10.208z"/>
			</g>
			<g>
				<path style="fill:#9F2865;" d="M67.28,52.699c0.113,0.108,0.351,0.522,0.351,1.222v0.444c0,0.7-0.238,1.113-0.351,1.221H10.278
					c-0.113-0.108-0.351-0.522-0.351-1.221v-0.444c0-0.7,0.238-1.114,0.351-1.222H67.28 M67.349,51.699H10.209
					c-0.708,0-1.281,0.995-1.281,2.222v0.444c0,1.227,0.574,2.221,1.281,2.221h57.141c0.708,0,1.281-0.995,1.281-2.221v-0.444
					C68.63,52.694,68.057,51.699,67.349,51.699L67.349,51.699z"/>
			</g>
		</g>
		
			<g id="&#x41F;&#x440;&#x44F;&#x43C;&#x43E;&#x443;&#x433;&#x43E;&#x43B;&#x44C;&#x43D;&#x438;&#x43A;_x2C__&#x441;&#x43A;&#x440;&#x443;&#x433;&#x43B;._&#x443;&#x433;&#x43B;&#x44B;_7">
			<g>
				<path style="fill:#9F2865;" d="M62.993,53.514c-0.289,0-0.524-0.237-0.524-0.528V20.829c0-0.292,0.235-0.529,0.524-0.529
					c0.29,0,0.525,0.237,0.525,0.529v32.156C63.519,53.276,63.283,53.514,62.993,53.514z M13.796,53.514
					c-0.29,0-0.525-0.237-0.525-0.528V20.829c0-0.292,0.235-0.529,0.525-0.529s0.525,0.237,0.525,0.529v32.156
					C14.321,53.276,14.085,53.514,13.796,53.514z"/>
			</g>
			<g>
				<path style="fill:#9F2865;" d="M62.993,20.8l0.025,0.029l-0.05,32.156V20.829C62.968,20.812,62.981,20.8,62.993,20.8
					 M13.796,20.8l0.025,0.029l-0.05,32.156V20.829C13.771,20.811,13.784,20.8,13.796,20.8 M62.993,19.8
					c-0.566,0-1.025,0.461-1.025,1.029v32.156c0,0.568,0.459,1.029,1.025,1.029c0.566,0,1.025-0.46,1.025-1.029V20.829
					C64.018,20.261,63.559,19.8,62.993,19.8L62.993,19.8z M13.796,19.8c-0.566,0-1.025,0.461-1.025,1.029v32.156
					c0,0.568,0.459,1.029,1.025,1.029c0.566,0,1.025-0.46,1.025-1.029V20.829C14.821,20.261,14.362,19.8,13.796,19.8L13.796,19.8z"
					/>
			</g>
		</g>
		<g id="&#x41F;&#x440;&#x44F;&#x43C;&#x43E;&#x443;&#x433;&#x43E;&#x43B;&#x44C;&#x43D;&#x438;&#x43A;_5">
			<g>
				<rect x="14.507" y="24.224" style="fill-rule:evenodd;clip-rule:evenodd;fill:#CDE8EC;" width="47.428" height="27.898"/>
			</g>
		</g>
		<g id="&#x43F;&#x440;&#x43E;&#x431;&#x438;&#x440;&#x43A;&#x430;">
			
				<g id="&#x41F;&#x440;&#x44F;&#x43C;&#x43E;&#x443;&#x433;&#x43E;&#x43B;&#x44C;&#x43D;&#x438;&#x43A;_x2C__&#x441;&#x43A;&#x440;&#x443;&#x433;&#x43B;._&#x443;&#x433;&#x43B;&#x44B;_3">
				<g>
					<path style="fill-rule:evenodd;clip-rule:evenodd;fill:#FFFFFF;" d="M21.739,47.869c-2.274,0-4.125-1.859-4.125-4.145V22.115
						c0-1.523-0.793-2.835-1.373-3.793c-0.066-0.109-0.14-0.231-0.21-0.352H27.96c-0.07,0.12-0.145,0.243-0.21,0.352
						c-0.58,0.958-1.373,2.27-1.373,3.793v21.609c0,2.285-1.85,4.145-4.125,4.145H21.739z"/>
				</g>
				<g>
					<path style="fill:#DA5397;" d="M26.229,18.971c-0.449,0.876-0.853,1.945-0.853,3.145v21.609c0,1.734-1.402,3.145-3.125,3.145
						h-0.513c-1.723,0-3.125-1.411-3.125-3.145V22.115c0-1.199-0.404-2.269-0.853-3.145H26.229 M28.145,16.971H15.846
						c-2.83,0,0.769,2.303,0.769,5.145v21.609c0,2.842,2.294,5.145,5.125,5.145h0.513c2.83,0,5.125-2.304,5.125-5.145V22.115
						C27.376,19.274,30.975,16.971,28.145,16.971L28.145,16.971z"/>
				</g>
			</g>
			
				<g id="&#x41F;&#x440;&#x44F;&#x43C;&#x43E;&#x443;&#x433;&#x43E;&#x43B;&#x44C;&#x43D;&#x438;&#x43A;_x2C__&#x441;&#x43A;&#x440;&#x443;&#x433;&#x43B;._&#x443;&#x433;&#x43B;&#x44B;_4">
				<g>
					<path style="fill-rule:evenodd;clip-rule:evenodd;fill:#106F7C;" d="M17.127,26.521v16.697c0,2.837,1.219,5.137,4.868,5.137
						c3.393,0,4.868-2.3,4.868-5.137V26.521C26.864,26.518,17.127,26.454,17.127,26.521z"/>
				</g>
			</g>
			
				<g id="&#x41F;&#x440;&#x44F;&#x43C;&#x43E;&#x443;&#x433;&#x43E;&#x43B;&#x44C;&#x43D;&#x438;&#x43A;_x2C__&#x441;&#x43A;&#x440;&#x443;&#x433;&#x43B;._&#x443;&#x433;&#x43B;&#x44B;_5">
				<g>
					<path style="fill-rule:evenodd;clip-rule:evenodd;fill:#FFFFFF;" d="M19.305,27.775c-0.495,0-0.897,0.403-0.897,0.9v16.207
						c0,0.497,0.402,0.9,0.897,0.9s0.897-0.403,0.897-0.9V28.675C20.202,28.178,19.8,27.775,19.305,27.775z"/>
				</g>
			</g>
		</g>
		<g id="&#x43F;&#x440;&#x43E;&#x431;&#x438;&#x440;&#x43A;&#x430;_&#x43A;&#x43E;&#x43F;&#x438;&#x44F;_2">
			
				<g id="&#x41F;&#x440;&#x44F;&#x43C;&#x43E;&#x443;&#x433;&#x43E;&#x43B;&#x44C;&#x43D;&#x438;&#x43A;_x2C__&#x441;&#x43A;&#x440;&#x443;&#x433;&#x43B;._&#x443;&#x433;&#x43B;&#x44B;_3_2_">
				<g>
					<path style="fill-rule:evenodd;clip-rule:evenodd;fill:#FFFFFF;" d="M54.537,47.869c-2.274,0-4.124-1.859-4.124-4.145V22.115
						c0-1.523-0.794-2.835-1.373-3.793c-0.065-0.109-0.14-0.231-0.211-0.352h11.929c-0.07,0.12-0.145,0.243-0.21,0.352
						c-0.579,0.958-1.373,2.27-1.373,3.793v21.609c0,2.285-1.851,4.145-4.125,4.145H54.537z"/>
				</g>
				<g>
					<path style="fill:#DA5397;" d="M59.027,18.971c-0.449,0.876-0.853,1.945-0.853,3.145v21.609c0,1.734-1.402,3.145-3.125,3.145
						h-0.512c-1.723,0-3.125-1.411-3.125-3.145V22.115c0-1.199-0.404-2.269-0.853-3.145H59.027 M60.943,16.971H48.644
						c-2.83,0,0.769,2.303,0.769,5.145v21.609c0,2.842,2.294,5.145,5.125,5.145h0.512c2.83,0,5.125-2.304,5.125-5.145V22.115
						C60.175,19.274,63.774,16.971,60.943,16.971L60.943,16.971z"/>
				</g>
			</g>
			
				<g id="&#x41F;&#x440;&#x44F;&#x43C;&#x43E;&#x443;&#x433;&#x43E;&#x43B;&#x44C;&#x43D;&#x438;&#x43A;_x2C__&#x441;&#x43A;&#x440;&#x443;&#x433;&#x43B;._&#x443;&#x433;&#x43B;&#x44B;_4_2_">
				<g>
					<path style="fill-rule:evenodd;clip-rule:evenodd;fill:#106F7C;" d="M49.925,26.521v16.697c0,2.837,1.219,5.137,4.868,5.137
						c3.393,0,4.868-2.3,4.868-5.137V26.521C59.662,26.518,49.925,26.454,49.925,26.521z"/>
				</g>
			</g>
			
				<g id="&#x41F;&#x440;&#x44F;&#x43C;&#x43E;&#x443;&#x433;&#x43E;&#x43B;&#x44C;&#x43D;&#x438;&#x43A;_x2C__&#x441;&#x43A;&#x440;&#x443;&#x433;&#x43B;._&#x443;&#x433;&#x43B;&#x44B;_5_&#x43A;&#x43E;&#x43F;&#x438;&#x44F;">
				<g>
					<path style="fill:#FFFFFF;" d="M52.103,27.775c-0.495,0-0.897,0.403-0.897,0.9v16.207c0,0.497,0.402,0.9,0.897,0.9
						S53,45.379,53,44.882V28.675C53,28.178,52.599,27.775,52.103,27.775z"/>
				</g>
			</g>
		</g>
		<g id="&#x43F;&#x440;&#x43E;&#x431;&#x438;&#x440;&#x43A;&#x430;_&#x43A;&#x43E;&#x43F;&#x438;&#x44F;">
			
				<g id="&#x41F;&#x440;&#x44F;&#x43C;&#x43E;&#x443;&#x433;&#x43E;&#x43B;&#x44C;&#x43D;&#x438;&#x43A;_x2C__&#x441;&#x43A;&#x440;&#x443;&#x433;&#x43B;._&#x443;&#x433;&#x43B;&#x44B;_3_4_">
				<g>
					<path style="fill-rule:evenodd;clip-rule:evenodd;fill:#FFFFFF;" d="M38.138,47.869c-2.274,0-4.125-1.859-4.125-4.145V22.115
						c0-1.523-0.793-2.835-1.373-3.793c-0.066-0.109-0.14-0.231-0.21-0.352h11.929c-0.071,0.12-0.146,0.243-0.211,0.352
						c-0.579,0.958-1.373,2.27-1.373,3.793v21.609c0,2.285-1.851,4.145-4.125,4.145H38.138z"/>
				</g>
				<g>
					<path style="fill:#1C9CAD;" d="M42.628,18.971c-0.449,0.876-0.853,1.945-0.853,3.145v21.609c0,1.734-1.402,3.145-3.125,3.145
						h-0.512c-1.723,0-3.125-1.411-3.125-3.145V22.115c0-1.199-0.404-2.269-0.853-3.145H42.628 M44.544,16.971H32.245
						c-2.83,0,0.769,2.303,0.769,5.145v21.609c0,2.842,2.294,5.145,5.125,5.145h0.512c2.83,0,5.125-2.304,5.125-5.145V22.115
						C43.776,19.274,47.375,16.971,44.544,16.971L44.544,16.971z"/>
				</g>
			</g>
			
				<g id="&#x41F;&#x440;&#x44F;&#x43C;&#x43E;&#x443;&#x433;&#x43E;&#x43B;&#x44C;&#x43D;&#x438;&#x43A;_x2C__&#x441;&#x43A;&#x440;&#x443;&#x433;&#x43B;._&#x443;&#x433;&#x43B;&#x44B;_4_4_">
				<g>
					<path style="fill-rule:evenodd;clip-rule:evenodd;fill:#E68BB9;" d="M33.526,26.521v16.697c0,2.837,1.219,5.137,4.868,5.137
						c3.393,0,4.868-2.3,4.868-5.137V26.521C43.263,26.518,33.526,26.454,33.526,26.521z"/>
				</g>
			</g>
			
				<g id="&#x41F;&#x440;&#x44F;&#x43C;&#x43E;&#x443;&#x433;&#x43E;&#x43B;&#x44C;&#x43D;&#x438;&#x43A;_x2C__&#x441;&#x43A;&#x440;&#x443;&#x433;&#x43B;._&#x443;&#x433;&#x43B;&#x44B;_5_&#x43A;&#x43E;&#x43F;&#x438;&#x44F;_2">
				<g>
					<path style="fill:#FFFFFF;" d="M35.448,27.775c-0.495,0-0.897,0.403-0.897,0.9v16.207c0,0.497,0.401,0.9,0.897,0.9
						s0.897-0.403,0.897-0.9V28.675C36.345,28.178,35.943,27.775,35.448,27.775z"/>
				</g>
			</g>
		</g>
	</g>
</g>
<g id="&#x421;&#x43B;&#x43E;&#x439;_1">
</g>
</svg>
