<?xml version="1.0" encoding="iso-8859-1"?>
<!-- Generator: Adobe Illustrator 19.2.1, SVG Export Plug-In . SVG Version: 6.00 Build 0)  -->
<svg version="1.1" xmlns="http://www.w3.org/2000/svg" xmlns:xlink="http://www.w3.org/1999/xlink" x="0px" y="0px"
	 viewBox="0 0 77 77" style="enable-background:new 0 0 77 77;" xml:space="preserve">
<g id="_x31_1-ginecology">
	<g id="&#x441;&#x438;&#x43B;&#x443;&#x44D;&#x442;" style="opacity:0.902;">
		<g>
			<path style="fill-rule:evenodd;clip-rule:evenodd;fill:#D95397;" d="M37.802,69.503c-0.277,0-0.558-0.004-0.84-0.012
				c-9.855-0.262-18.71-8.149-18.798-8.229l-0.038-0.034l-0.044-0.026c0.004,0-1.495-1.227,0.231-7.799
				c1.402-5.335,3.709-8.838,5.563-11.653c3.123-4.743,5.379-8.168,0.251-15.792c-5.205-7.737-2.939-12.222-2.916-12.267
				c0.083-0.169,1.837-3.676,7.235-4.163c0.246-0.022,0.501-0.033,0.765-0.033c3.355,0,7.937,1.649,9.261,2.155l0.087,0.033
				l0.158,0.024l1.558-0.006l-0.519-0.369c1.894-0.595,6.694-1.843,9.129-1.843c0.229,0,0.438,0.011,0.619,0.036
				c5.436,0.736,6.663,4.393,6.633,4.859c-0.162,0.707-0.168,1.416-0.174,2.167c-0.018,2.03-0.038,4.556-3.252,9.409
				c-4.397,6.642-2.405,10.167,0.611,15.503c1.686,2.982,3.784,6.695,5.206,11.942c1.708,6.302,0.596,7.896,0.584,7.912
				C59.064,61.362,50.773,69.503,37.802,69.503C37.802,69.503,37.803,69.503,37.802,69.503z"/>
		</g>
		<g>
			<path style="fill:#D95397;" d="M48.884,9.991c0.214,0,0.4,0.01,0.552,0.031c4.745,0.643,6.099,3.667,6.195,4.325
				c-0.157,0.746-0.163,1.454-0.169,2.201c-0.016,1.964-0.036,4.408-3.168,9.138c-4.567,6.898-2.403,10.726,0.593,16.025
				c1.672,2.959,3.754,6.641,5.159,11.827c1.462,5.393,0.805,7.182,0.675,7.46c-0.845,0.798-8.815,8.005-20.918,8.005
				c-0.273,0-0.549-0.004-0.826-0.011c-9.664-0.257-18.39-8.022-18.477-8.1l-0.076-0.069l-0.01-0.006
				c-0.147-0.19-1.088-1.682,0.384-7.286c1.381-5.255,3.663-8.721,5.497-11.506c3.229-4.903,5.562-8.446,0.248-16.345
				c-5.005-7.44-2.909-11.714-2.892-11.747l0.013-0.024l0.012-0.024c0.016-0.034,1.67-3.393,6.817-3.858
				c0.224-0.02,0.466-0.03,0.719-0.03c3.265,0,7.776,1.623,9.081,2.121c0.117,0.045,0.238,0.091,0.423,0.091
				c0.002,0,0.004,0,0.006,0l3.107-0.018l-0.945-0.671C43.074,10.897,46.834,9.991,48.884,9.991 M48.884,8.991
				c-3.253,0-10.354,2.087-10.17,2.217c0,0,0,0,0,0c-0.018,0-5.552-2.212-9.504-2.212c-0.279,0-0.549,0.011-0.809,0.034
				c-5.775,0.521-7.63,4.425-7.63,4.425s-2.527,4.653,2.941,12.782c7.922,11.775-2.101,12.644-5.883,27.039
				c-1.903,7.244,0,8.357,0,8.357s8.956,8.087,19.12,8.357c0.286,0.008,0.571,0.011,0.853,0.011c13.348,0,21.699-8.369,21.699-8.369
				s1.358-1.539-0.49-8.357c-3.901-14.395-12.581-16.922-5.883-27.039c4.471-6.754,2.916-9.192,3.499-11.764
				c0.137-0.605-1.292-4.662-7.057-5.443C49.368,9.004,49.138,8.991,48.884,8.991L48.884,8.991z"/>
		</g>
	</g>
	<g id="_x31_a">
		<g>
			<path style="fill:#7E2559;" d="M38.5,1.22c20.556,0,37.28,16.724,37.28,37.28c0,20.556-16.724,37.28-37.28,37.28
				S1.22,59.056,1.22,38.5C1.22,17.944,17.944,1.22,38.5,1.22 M38.5,0C17.237,0,0,17.237,0,38.5C0,59.763,17.237,77,38.5,77
				C59.763,77,77,59.763,77,38.5C77,17.237,59.763,0,38.5,0L38.5,0z"/>
		</g>
	</g>
	<g id="&#x43A;&#x440;&#x435;&#x441;&#x442;">
		<g id="&#x42D;&#x43B;&#x43B;&#x438;&#x43F;&#x441;_12">
			<g>
				<circle style="fill-rule:evenodd;clip-rule:evenodd;fill:#1C9CAD;" cx="38.794" cy="58.541" r="13.519"/>
			</g>
		</g>
		<g id="&#x42D;&#x43B;&#x43B;&#x438;&#x43F;&#x441;_13">
			<g>
				<circle style="fill-rule:evenodd;clip-rule:evenodd;fill:#FFFFFF;" cx="38.794" cy="58.541" r="11.058"/>
			</g>
		</g>
		<g id="&#x41F;&#x440;&#x44F;&#x43C;&#x43E;&#x443;&#x433;&#x43E;&#x43B;&#x44C;&#x43D;&#x438;&#x43A;_3">
			<g>
				<polygon style="fill:#1C9CAD;" points="46.784,56.08 41.255,56.08 41.255,50.551 36.333,50.551 36.333,56.08 30.804,56.08 
					30.804,61.003 36.333,61.003 36.333,66.532 41.255,66.532 41.255,61.003 46.784,61.003 				"/>
			</g>
		</g>
	</g>
</g>
<g id="&#x421;&#x43B;&#x43E;&#x439;_1">
</g>
</svg>
