<?xml version="1.0" encoding="iso-8859-1"?>
<!-- Generator: Adobe Illustrator 19.2.1, SVG Export Plug-In . SVG Version: 6.00 Build 0)  -->
<svg version="1.1" xmlns="http://www.w3.org/2000/svg" xmlns:xlink="http://www.w3.org/1999/xlink" x="0px" y="0px"
	 viewBox="0 0 77 77" style="enable-background:new 0 0 77 77;" xml:space="preserve">
<g id="_x31_3-endo">
	<g id="_x33_a">
		<g>
			<path style="fill:#7E2559;" d="M38.5,1.22c20.556,0,37.28,16.724,37.28,37.28c0,20.556-16.724,37.28-37.28,37.28
				S1.22,59.056,1.22,38.5C1.22,17.944,17.944,1.22,38.5,1.22 M38.5,0C17.237,0,0,17.237,0,38.5C0,59.763,17.237,77,38.5,77
				C59.763,77,77,59.763,77,38.5C77,17.237,59.763,0,38.5,0L38.5,0z"/>
		</g>
	</g>
	<g id="&#x449;&#x438;&#x442;&#x43E;&#x432;&#x438;&#x434;&#x43A;&#x430;">
		
			<g id="&#x41F;&#x440;&#x44F;&#x43C;&#x43E;&#x443;&#x433;&#x43E;&#x43B;&#x44C;&#x43D;&#x438;&#x43A;_x2C__&#x441;&#x43A;&#x440;&#x443;&#x433;&#x43B;._&#x443;&#x433;&#x43B;&#x44B;_8">
			<g>
				<path style="fill-rule:evenodd;clip-rule:evenodd;fill:#E477AC;" d="M40.572,13.647H35.73c-2.761,0-5,2.239-5,5V63.77
					c0,2.761,2.239,5,5,5h4.842c2.761,0,5-2.239,5-5V18.647C45.572,15.886,43.333,13.647,40.572,13.647z"/>
			</g>
		</g>
		
			<g id="&#x41F;&#x440;&#x44F;&#x43C;&#x43E;&#x443;&#x433;&#x43E;&#x43B;&#x44C;&#x43D;&#x438;&#x43A;_x2C__&#x441;&#x43A;&#x440;&#x443;&#x433;&#x43B;._&#x443;&#x433;&#x43B;&#x44B;_11">
			<g>
				<path style="fill-rule:evenodd;clip-rule:evenodd;fill:#FFFFFF;" d="M45.613,26.8C42.327,26.8,39,25.649,39,23.45V13.276
					c0-2.217,3.304-3.377,6.567-3.377c3.268,0,6.576,1.16,6.576,3.377V23.45c0,1.25-1.04,2.018-1.913,2.442
					C49.026,26.478,47.387,26.8,45.613,26.8C45.614,26.8,45.614,26.8,45.613,26.8z"/>
			</g>
			<g>
				<path style="fill:#1C9CAD;" d="M45.567,10.399c2.946,0,6.076,1.008,6.076,2.877V23.45c0,1.851-3.107,2.85-6.03,2.85
					c-2.964,0-6.114-0.999-6.114-2.85V13.276C39.5,11.407,42.626,10.399,45.567,10.399 M45.567,9.399
					c-3.535,0-7.067,1.291-7.067,3.877V23.45c0,2.556,3.564,3.85,7.114,3.85c3.522,0,7.03-1.273,7.03-3.85V13.276
					C52.644,10.692,49.105,9.399,45.567,9.399L45.567,9.399z"/>
			</g>
		</g>
		
			<g id="&#x41F;&#x440;&#x44F;&#x43C;&#x43E;&#x443;&#x433;&#x43E;&#x43B;&#x44C;&#x43D;&#x438;&#x43A;_x2C__&#x441;&#x43A;&#x440;&#x443;&#x433;&#x43B;._&#x443;&#x433;&#x43B;&#x44B;_11_&#x43A;&#x43E;&#x43F;&#x438;&#x44F;">
			<g>
				<path style="fill-rule:evenodd;clip-rule:evenodd;fill:#FFFFFF;" d="M31.47,27.284c-3.287,0-6.614-1.151-6.614-3.351V13.76
					c0-2.217,3.304-3.377,6.567-3.377c3.268,0,6.576,1.16,6.576,3.377v10.174c0,1.25-1.04,2.018-1.913,2.442
					C34.882,26.961,33.243,27.284,31.47,27.284C31.47,27.284,31.47,27.284,31.47,27.284z"/>
			</g>
			<g>
				<path style="fill:#1C9CAD;" d="M31.424,10.883c2.946,0,6.076,1.008,6.076,2.877v10.174c0,1.851-3.107,2.85-6.03,2.85
					c-2.964,0-6.114-0.999-6.114-2.85V13.76C25.356,11.891,28.482,10.883,31.424,10.883 M31.424,9.883
					c-3.535,0-7.067,1.291-7.067,3.877v10.174c0,2.556,3.564,3.85,7.114,3.85c3.522,0,7.03-1.273,7.03-3.85V13.76
					C38.5,11.176,34.961,9.883,31.424,9.883L31.424,9.883z"/>
			</g>
		</g>
		
			<g id="&#x41F;&#x440;&#x44F;&#x43C;&#x43E;&#x443;&#x433;&#x43E;&#x43B;&#x44C;&#x43D;&#x438;&#x43A;_x2C__&#x441;&#x43A;&#x440;&#x443;&#x433;&#x43B;._&#x443;&#x433;&#x43B;&#x44B;_11_&#x43A;&#x43E;&#x43F;&#x438;&#x44F;_2" style="opacity:0.5882;">
			<g>
				<path style="fill-rule:evenodd;clip-rule:evenodd;fill:#1C9CAD;" d="M40.268,15.061v7.435c0,3.722,10.254,3.781,10.254,0v-7.435
					C50.522,11.286,40.268,11.28,40.268,15.061z"/>
			</g>
		</g>
		
			<g id="&#x41F;&#x440;&#x44F;&#x43C;&#x43E;&#x443;&#x433;&#x43E;&#x43B;&#x44C;&#x43D;&#x438;&#x43A;_x2C__&#x441;&#x43A;&#x440;&#x443;&#x433;&#x43B;._&#x443;&#x433;&#x43B;&#x44B;_11_&#x43A;&#x43E;&#x43F;&#x438;&#x44F;_3" style="opacity:0.5882;">
			<g>
				<path style="fill-rule:evenodd;clip-rule:evenodd;fill:#1C9CAD;" d="M26.478,15.414v7.434c0,3.722,10.254,3.781,10.254,0v-7.434
					C36.732,11.639,26.478,11.633,26.478,15.414z"/>
			</g>
		</g>
		
			<g id="&#x41F;&#x440;&#x44F;&#x43C;&#x43E;&#x443;&#x433;&#x43E;&#x43B;&#x44C;&#x43D;&#x438;&#x43A;_x2C__&#x441;&#x43A;&#x440;&#x443;&#x433;&#x43B;._&#x443;&#x433;&#x43B;&#x44B;_9">
			<g>
				<path style="fill:#FFFFFF;" d="M30.951,64.027c-1.021,0-1.851-0.831-1.851-1.852s0.831-1.851,1.851-1.851h14.401
					c1.021,0,1.851,0.83,1.851,1.851s-0.83,1.852-1.851,1.852H30.951z M30.951,55.395c-1.021,0-1.851-0.831-1.851-1.852
					s0.831-1.851,1.851-1.851h14.401c1.021,0,1.851,0.83,1.851,1.851s-0.83,1.852-1.851,1.852H30.951z M30.951,34.105
					c-1.021,0-1.851-0.831-1.851-1.851s0.831-1.851,1.851-1.851h14.401c1.021,0,1.851,0.831,1.851,1.851s-0.83,1.851-1.851,1.851
					H30.951z"/>
			</g>
			<g>
				<path style="fill:#1C9CAD;" d="M45.351,30.903c0.745,0,1.351,0.606,1.351,1.351c0,0.745-0.606,1.351-1.351,1.351H30.951
					c-0.745,0-1.351-0.606-1.351-1.351c0-0.745,0.606-1.351,1.351-1.351H45.351 M45.351,52.192c0.745,0,1.351,0.606,1.351,1.351
					c0,0.745-0.606,1.351-1.351,1.351H30.951c-0.745,0-1.351-0.606-1.351-1.351c0-0.745,0.606-1.351,1.351-1.351H45.351
					 M45.351,60.825c0.745,0,1.351,0.606,1.351,1.351c0,0.745-0.606,1.351-1.351,1.351H30.951c-0.745,0-1.351-0.606-1.351-1.351
					c0-0.745,0.606-1.351,1.351-1.351H45.351 M45.351,29.903H30.951c-1.298,0-2.351,1.053-2.351,2.351
					c0,1.298,1.053,2.351,2.351,2.351h14.401c1.298,0,2.351-1.052,2.351-2.351C47.703,30.956,46.65,29.903,45.351,29.903
					L45.351,29.903z M45.351,51.192H30.951c-1.298,0-2.351,1.052-2.351,2.351c0,1.299,1.053,2.351,2.351,2.351h14.401
					c1.298,0,2.351-1.053,2.351-2.351C47.703,52.245,46.65,51.192,45.351,51.192L45.351,51.192z M45.351,59.825H30.951
					c-1.298,0-2.351,1.053-2.351,2.351c0,1.298,1.053,2.351,2.351,2.351h14.401c1.298,0,2.351-1.053,2.351-2.351
					C47.703,60.878,46.65,59.825,45.351,59.825L45.351,59.825z"/>
			</g>
		</g>
		
			<g id="&#x41F;&#x440;&#x44F;&#x43C;&#x43E;&#x443;&#x433;&#x43E;&#x43B;&#x44C;&#x43D;&#x438;&#x43A;_x2C__&#x441;&#x43A;&#x440;&#x443;&#x433;&#x43B;._&#x443;&#x433;&#x43B;&#x44B;_10">
			<g>
				<path style="fill-rule:evenodd;clip-rule:evenodd;fill:#9F2865;" d="M57.036,25.831c0-2.308-3.604-5.308-9.007-2.507
					c-4.978,2.581-5.828,14.89-10.645,15.878c-2.748,0.564-3.995-13.39-11.613-16.37c-3.05-1.193-6.402,0.524-7.221,2.999
					l-2.68,18.32c0,2.021,10.964,7.8,12.022,7.587c3.403-0.686,0.641-3.917,8.672-4.179c9.392-0.306,6.3,3.058,11.129,4.179
					c3.105,0.72,11.635-4.387,13.436-8.357L57.036,25.831z"/>
			</g>
		</g>
	</g>
</g>
<g id="&#x421;&#x43B;&#x43E;&#x439;_1">
</g>
</svg>
