<?xml version="1.0" encoding="iso-8859-1"?>
<!-- Generator: Adobe Illustrator 19.2.1, SVG Export Plug-In . SVG Version: 6.00 Build 0)  -->
<svg version="1.1" xmlns="http://www.w3.org/2000/svg" xmlns:xlink="http://www.w3.org/1999/xlink" x="0px" y="0px"
	 viewBox="0 0 77 77" style="enable-background:new 0 0 77 77;" xml:space="preserve">
<g id="_x31_4-gastro">
	<g id="&#x42D;&#x43B;&#x43B;&#x438;&#x43F;&#x441;_15">
		<g>
			<path style="fill-rule:evenodd;clip-rule:evenodd;fill:#D95397;" d="M59,16.999c-6.858-3.655-21.374,1.797-21.969,1.809
				c-3.039,0.063-3.413-2.5-4.115-3.527c-3.961-5.796,0.199-7.761-1.763-12.344c-0.176-0.412-4.201-0.174-4.702,2.351
				c-0.782,3.939-1.946,4.325-0.588,12.343c1.223,7.222,8.185,10.196,5.29,19.397c-2.083,6.622-7.185,4.535-11.168,12.931
				c-4.164,8.778-1.877,13.679-1.763,15.87c0.247,4.754,3.444,4.162,4.702,5.29c2.408,2.16-1.992-11.735,0.588-10.58
				C26.583,61.916,40.071,67.748,48,64C78.44,49.61,64.988,20.191,59,16.999z"/>
		</g>
	</g>
	<g id="&#x42D;&#x43B;&#x43B;&#x438;&#x43F;&#x441;_15_&#x43A;&#x43E;&#x43F;&#x438;&#x44F;">
		<g>
			<path style="fill-rule:evenodd;clip-rule:evenodd;fill:#FFFFFF;" d="M53.086,20.748c-6.106-3.259-15.17-0.011-15.7,0
				c-2.706,0.056-4.433-2.2-5.058-3.115c-3.527-5.169,1.159-10.608-0.588-14.695c-0.157-0.367-3.08-1.664-3.527,0.588
				c-0.697,3.513-1.98,9.023-0.771,16.174c1.089,6.44,9.226,9.713,6.649,17.918c-1.855,5.905-8.336,3.423-11.883,10.911
				c-3.707,7.828-2.326,12.409-2.224,14.364c0.22,4.239,2.568,7.656,3.527,8.817c1.753,2.121-4.256-14.94,1.763-12.931
				c2.843,0.949,10.612,5.245,17.345,1.282C67.978,45.132,58.418,23.594,53.086,20.748z"/>
		</g>
	</g>
	
		<g id="&#x41F;&#x440;&#x44F;&#x43C;&#x43E;&#x443;&#x433;&#x43E;&#x43B;&#x44C;&#x43D;&#x438;&#x43A;_3_&#x43A;&#x43E;&#x43F;&#x438;&#x44F;_2">
		<g>
			<polygon style="fill:#1C9CAD;" points="54.991,36.226 48.756,36.226 48.756,29.99 43.224,29.99 43.224,36.226 36.988,36.226 
				36.988,41.758 43.224,41.758 43.224,47.993 48.756,47.993 48.756,41.758 54.991,41.758 			"/>
		</g>
	</g>
	<g id="_x34_a">
		<g>
			<path style="fill:#7E2559;" d="M38.5,1.22c20.556,0,37.28,16.724,37.28,37.28c0,20.556-16.724,37.28-37.28,37.28
				S1.22,59.056,1.22,38.5C1.22,17.944,17.944,1.22,38.5,1.22 M38.5,0C17.237,0,0,17.237,0,38.5C0,59.763,17.237,77,38.5,77
				C59.763,77,77,59.763,77,38.5C77,17.237,59.763,0,38.5,0L38.5,0z"/>
		</g>
	</g>
</g>
<g id="&#x421;&#x43B;&#x43E;&#x439;_1">
</g>
</svg>
