<?xml version="1.0" encoding="iso-8859-1"?>
<!-- Generator: Adobe Illustrator 19.2.1, SVG Export Plug-In . SVG Version: 6.00 Build 0)  -->
<svg version="1.1" xmlns="http://www.w3.org/2000/svg" xmlns:xlink="http://www.w3.org/1999/xlink" x="0px" y="0px"
	 viewBox="0 0 77 77" style="enable-background:new 0 0 77 77;" xml:space="preserve">
<g id="_x31_5-cardio">
	<g id="&#x41C;&#x43D;&#x43E;&#x433;&#x43E;&#x443;&#x433;&#x43E;&#x43B;&#x44C;&#x43D;&#x438;&#x43A;_1_2_">
		<g>
			<path style="fill:#D95397;" d="M67.265,20.669c-2.626-3.827-7.409-7.989-18.272-4.905c-6.545,1.858-9.937,8.364-10.665,9.918
				c-0.979-1.962-4.352-7.805-10.54-9.547c-10.896-3.069-15.694,1.073-18.328,4.882c-9.102,13.16,4.606,27.914,12.007,34.244
				c4.343,3.715,14.441,10.975,16.708,12.597v0.213c0,0,0.052-0.038,0.148-0.107c0.204,0.146,0.315,0.225,0.315,0.225v-0.452
				c2.263-1.632,12.327-8.925,16.656-12.657C62.673,48.717,76.339,33.892,67.265,20.669z"/>
		</g>
	</g>
	
		<g id="&#x41C;&#x43D;&#x43E;&#x433;&#x43E;&#x443;&#x433;&#x43E;&#x43B;&#x44C;&#x43D;&#x438;&#x43A;_1_&#x43A;&#x43E;&#x43F;&#x438;&#x44F;">
		<g>
			<path style="fill:#FCFCFC;" d="M61.56,27.048c-2.139-3.217-6.036-6.716-14.886-4.124c-5.332,1.562-8.095,7.031-8.688,8.337
				c-0.798-1.65-3.545-6.561-8.586-8.026c-8.877-2.58-12.786,0.902-14.932,4.104c-7.415,11.064,3.753,23.467,9.782,28.789
				c3.538,3.123,11.764,9.226,13.612,10.59v0.179c0,0,0.043-0.032,0.121-0.09c0.166,0.123,0.257,0.189,0.257,0.189v-0.38
				c1.844-1.372,10.042-7.503,13.569-10.64C57.819,50.629,68.952,38.166,61.56,27.048z"/>
		</g>
	</g>
	
		<g id="&#x41F;&#x440;&#x44F;&#x43C;&#x43E;&#x443;&#x433;&#x43E;&#x43B;&#x44C;&#x43D;&#x438;&#x43A;_3_&#x43A;&#x43E;&#x43F;&#x438;&#x44F;">
		<g>
			<polygon style="fill:#1C9CAD;" points="47.99,41.924 41.072,41.924 41.072,35.008 34.919,35.008 34.919,41.924 28.001,41.924 
				28.001,48.075 34.919,48.075 34.919,54.991 41.072,54.991 41.072,48.075 47.99,48.075 			"/>
		</g>
	</g>
	<g id="_x35_a">
		<g>
			<path style="fill:#7E2559;" d="M38.5,1.22c20.556,0,37.28,16.724,37.28,37.28S59.056,75.78,38.5,75.78S1.22,59.056,1.22,38.5
				S17.944,1.22,38.5,1.22 M38.5,0C17.237,0,0,17.237,0,38.5S17.237,77,38.5,77C59.763,77,77,59.763,77,38.5S59.763,0,38.5,0L38.5,0
				z"/>
		</g>
	</g>
</g>
<g id="&#x421;&#x43B;&#x43E;&#x439;_1">
</g>
</svg>
