<?xml version="1.0" encoding="iso-8859-1"?>
<!-- Generator: Adobe Illustrator 19.2.1, SVG Export Plug-In . SVG Version: 6.00 Build 0)  -->
<svg version="1.1" xmlns="http://www.w3.org/2000/svg" xmlns:xlink="http://www.w3.org/1999/xlink" x="0px" y="0px"
	 viewBox="0 0 77 77" style="enable-background:new 0 0 77 77;" xml:space="preserve">
<g id="_x31_7-oftalmology">
	<g id="_x37_a">
		<g>
			<path style="fill:#7E2559;" d="M38.5,1.22c20.556,0,37.28,16.724,37.28,37.28c0,20.556-16.724,37.28-37.28,37.28
				S1.22,59.056,1.22,38.5C1.22,17.944,17.944,1.22,38.5,1.22 M38.5,0C17.237,0,0,17.237,0,38.5C0,59.763,17.237,77,38.5,77
				C59.763,77,77,59.763,77,38.5C77,17.237,59.763,0,38.5,0L38.5,0z"/>
		</g>
	</g>
	<g id="&#x43E;&#x447;&#x435;&#x447;&#x438;">
		
			<g id="&#x41F;&#x440;&#x44F;&#x43C;&#x43E;&#x443;&#x433;&#x43E;&#x43B;&#x44C;&#x43D;&#x438;&#x43A;_x2C__&#x441;&#x43A;&#x440;&#x443;&#x433;&#x43B;._&#x443;&#x433;&#x43B;&#x44B;_7_2_">
			<g>
				<path style="fill-rule:evenodd;clip-rule:evenodd;fill:#9F2865;" d="M43.329,38.735c0,0-0.875-3.722-4.662-3.722
					c-3.344,0-4.995,3.722-4.995,3.722c-0.736,0-3.663-0.563-3.663,0.465c0,1.028,3.593,2.791,4.329,2.791
					c0,0,0.984-3.722,4.329-3.722c3.787,0,4.329,3.722,4.329,3.722c0.736,0,3.996-1.763,3.996-2.791
					C46.992,38.172,44.065,38.735,43.329,38.735z"/>
			</g>
		</g>
		<g id="&#x42D;&#x43B;&#x43B;&#x438;&#x43F;&#x441;_17">
			<g>
				<ellipse style="fill-rule:evenodd;clip-rule:evenodd;fill:#D95397;" cx="17.854" cy="37.6" rx="14.584" ry="14.557"/>
			</g>
		</g>
		<g id="&#x42D;&#x43B;&#x43B;&#x438;&#x43F;&#x441;_17_&#x43A;&#x43E;&#x43F;&#x438;&#x44F;">
			<g>
				<circle style="fill-rule:evenodd;clip-rule:evenodd;fill:#CDE8EC;" cx="18" cy="37.999" r="11"/>
			</g>
		</g>
		<g id="&#x42D;&#x43B;&#x43B;&#x438;&#x43F;&#x441;_17_&#x43A;&#x43E;&#x43F;&#x438;&#x44F;_2">
			<g>
				<ellipse style="fill-rule:evenodd;clip-rule:evenodd;fill:#D95397;" cx="58.889" cy="37.931" rx="14.584" ry="14.557"/>
			</g>
		</g>
		<g id="&#x42D;&#x43B;&#x43B;&#x438;&#x43F;&#x441;_17_&#x43A;&#x43E;&#x43F;&#x438;&#x44F;_3">
			<g>
				<circle style="fill-rule:evenodd;clip-rule:evenodd;fill:#CDE8EC;" cx="59" cy="37.999" r="11"/>
			</g>
		</g>
		
			<g id="&#x41F;&#x440;&#x44F;&#x43C;&#x43E;&#x443;&#x433;&#x43E;&#x43B;&#x44C;&#x43D;&#x438;&#x43A;_3_&#x43A;&#x43E;&#x43F;&#x438;&#x44F;_3">
			<g>
				<polygon style="fill:#1C9CAD;" points="27.057,35.13 20.84,35.13 20.84,28.912 15.28,28.912 15.28,35.13 9.063,35.13 
					9.063,40.69 15.28,40.69 15.28,46.907 20.84,46.907 20.84,40.69 27.057,40.69 				"/>
			</g>
		</g>
	</g>
</g>
<g id="&#x421;&#x43B;&#x43E;&#x439;_1">
</g>
</svg>
