<?xml version="1.0" encoding="iso-8859-1"?>
<!-- Generator: Adobe Illustrator 19.2.1, SVG Export Plug-In . SVG Version: 6.00 Build 0)  -->
<svg version="1.1" xmlns="http://www.w3.org/2000/svg" xmlns:xlink="http://www.w3.org/1999/xlink" x="0px" y="0px"
	 viewBox="0 0 77 77" style="enable-background:new 0 0 77 77;" xml:space="preserve">
<g id="_x31_8-lor">
	
		<g id="&#x41F;&#x440;&#x44F;&#x43C;&#x43E;&#x443;&#x433;&#x43E;&#x43B;&#x44C;&#x43D;&#x438;&#x43A;_5_&#x43A;&#x43E;&#x43F;&#x438;&#x44F;">
		<g>
			<path style="fill-rule:evenodd;clip-rule:evenodd;fill:#9F2865;" d="M66.09,39.709c-2.101-3.195-8.594-8.406-28.59-8.406
				c-19.996,0-26.488,4.735-28.59,7.973v-9.082c0.485-0.878,5.494-8.694,29.458-8.694c21.79,0,27.155,7.769,27.722,8.706V39.709z"/>
		</g>
		<g>
			<path style="fill:#9F2865;" d="M38.368,21.999c20.865,0,26.437,7.153,27.222,8.348v7.942c-2.942-3.278-10.203-7.487-28.09-7.487
				c-17.886,0-25.146,3.833-28.09,7.06v-7.534C10.116,29.173,15.435,21.999,38.368,21.999 M38.368,20.999
				c-26.019,0-29.958,9.075-29.958,9.075v12.063c0.007-0.656,0.596-10.334,29.09-10.334c28.093,0,29.09,10.371,29.09,10.371v-12.1
				C66.59,30.074,62.12,20.999,38.368,20.999L38.368,20.999z"/>
		</g>
	</g>
	<g id="&#x41F;&#x440;&#x44F;&#x43C;&#x43E;&#x443;&#x433;&#x43E;&#x43B;&#x44C;&#x43D;&#x438;&#x43A;_5_1_">
		<g>
			<path style="fill-rule:evenodd;clip-rule:evenodd;fill:#D95397;" d="M36.632,50.316c-21.886,0-27.166-7.768-27.722-8.704v-9.506
				c2.101,3.195,8.592,8.407,28.59,8.407c19.996,0,26.488-4.735,28.59-7.973v9.081C65.604,42.499,60.598,50.316,36.632,50.316z"/>
		</g>
		<g>
			<path style="fill:#D95397;" d="M9.41,33.526c2.942,3.278,10.203,7.487,28.09,7.487c17.886,0,25.146-3.833,28.09-7.06v7.534
				c-0.706,1.155-6.025,8.329-28.958,8.329c-20.865,0-26.437-7.153-27.222-8.348V33.526 M8.41,29.642v12.099
				c0,0,4.47,9.075,28.222,9.075c26.019,0,29.958-9.075,29.958-9.075V29.679c-0.007,0.655-0.596,10.334-29.09,10.334
				C9.407,40.013,8.41,29.642,8.41,29.642L8.41,29.642z"/>
		</g>
	</g>
	<g id="&#x42D;&#x43B;&#x43B;&#x438;&#x43F;&#x441;_16">
		<g>
			<path style="fill-rule:evenodd;clip-rule:evenodd;fill:#FFFFFF;" d="M47.481,61.999c-7.783,0-14.115-6.299-14.115-14.04
				c0-7.742,6.332-14.041,14.115-14.041c7.784,0,14.116,6.298,14.116,14.041C61.598,55.7,55.266,61.999,47.481,61.999z"/>
		</g>
		<g>
			<path style="fill:#1C9CAD;" d="M47.482,34.919c7.232,0,13.115,5.85,13.115,13.04c0,7.191-5.884,13.041-13.115,13.041
				c-7.232,0-13.115-5.85-13.115-13.041C34.366,40.768,40.25,34.919,47.482,34.919 M47.482,32.919
				c-8.348,0-15.115,6.734-15.115,15.04c0,8.307,6.767,15.041,15.115,15.041c8.348,0,15.115-6.734,15.115-15.041
				C62.597,39.653,55.83,32.919,47.482,32.919L47.482,32.919z"/>
		</g>
	</g>
	<g id="&#x42D;&#x43B;&#x43B;&#x438;&#x43F;&#x441;_16_&#x43A;&#x43E;&#x43F;&#x438;&#x44F;">
		<g>
			<ellipse style="fill-rule:evenodd;clip-rule:evenodd;fill:#1C9CAD;" cx="47.696" cy="48.402" rx="2.779" ry="2.547"/>
		</g>
		<g>
			<path style="fill:#1C9CAD;" d="M47.696,46.855c0.981,0,1.779,0.694,1.779,1.547c0,0.853-0.798,1.547-1.779,1.547
				s-1.779-0.694-1.779-1.547C45.917,47.549,46.715,46.855,47.696,46.855 M47.696,44.855c-2.087,0-3.779,1.588-3.779,3.547
				c0,1.959,1.692,3.547,3.779,3.547s3.779-1.588,3.779-3.547C51.475,46.443,49.783,44.855,47.696,44.855L47.696,44.855z"/>
		</g>
	</g>
	<g id="_x38_a">
		<g>
			<path style="fill:#7E2559;" d="M38.5,1.22c20.556,0,37.28,16.724,37.28,37.28S59.056,75.78,38.5,75.78S1.22,59.056,1.22,38.5
				S17.944,1.22,38.5,1.22 M38.5,0C17.237,0,0,17.237,0,38.5S17.237,77,38.5,77C59.763,77,77,59.763,77,38.5S59.763,0,38.5,0L38.5,0
				z"/>
		</g>
	</g>
</g>
<g id="&#x421;&#x43B;&#x43E;&#x439;_1">
</g>
</svg>
