<?xml version="1.0" encoding="iso-8859-1"?>
<!-- Generator: Adobe Illustrator 19.2.1, SVG Export Plug-In . SVG Version: 6.00 Build 0)  -->
<svg version="1.1" xmlns="http://www.w3.org/2000/svg" xmlns:xlink="http://www.w3.org/1999/xlink" x="0px" y="0px"
	 viewBox="0 0 77 77" style="enable-background:new 0 0 77 77;" xml:space="preserve">
<g id="_x32_-inseminatsyya">
	<g id="&#x441;&#x438;&#x43B;&#x443;&#x44D;&#x442;_&#x43A;&#x43E;&#x43F;&#x438;&#x44F;_2" style="opacity:0.749;">
		<g>
			<path style="fill-rule:evenodd;clip-rule:evenodd;fill:#DD64A1;" d="M59.028,50.825c-3.81-13.922-12.289-16.367-5.746-26.152
				c4.367-6.532,2.849-8.891,3.418-11.378c0.134-0.585-1.262-4.509-6.893-5.264c-2.722-0.365-10.572,2.194-10.604,2.106
				c-0.01-0.029-6.197-2.453-10.074-2.106c-5.641,0.504-7.453,4.28-7.453,4.28s-2.469,4.5,2.873,12.363
				c7.738,11.389-2.052,12.23-5.746,26.152c-1.859,7.006,0,8.084,0,8.084s8.748,7.821,18.675,8.083
				c13.522,0.357,22.027-8.083,22.027-8.083S60.833,57.42,59.028,50.825z"/>
		</g>
	</g>
	<g id="_x32_">
		<g>
			<path style="fill:#7E2559;" d="M38.5,1.22c20.556,0,37.28,16.724,37.28,37.28S59.056,75.78,38.5,75.78S1.22,59.056,1.22,38.5
				S17.944,1.22,38.5,1.22 M38.5,0C17.237,0,0,17.237,0,38.5C0,59.763,17.237,77,38.5,77C59.763,77,77,59.763,77,38.5
				C77,17.237,59.763,0,38.5,0L38.5,0z"/>
		</g>
	</g>
	<g id="&#x432;&#x435;&#x43D;&#x435;&#x440;&#x430;_&#x43A;&#x43E;&#x43F;&#x438;&#x44F;">
		<g id="&#x42D;&#x43B;&#x43B;&#x438;&#x43F;&#x441;_9_1_">
			<g>
				<path style="fill:#9F2865;" d="M39.575,43.793c3.391,0,6.151,2.776,6.151,6.188c0,3.412-2.759,6.187-6.151,6.187
					s-6.151-2.776-6.151-6.187C33.424,46.569,36.183,43.793,39.575,43.793 M39.575,37.793c-6.711,0-12.151,5.456-12.151,12.188
					c0,6.731,5.44,12.187,12.151,12.187s12.151-5.456,12.151-12.187C51.725,43.25,46.285,37.793,39.575,37.793L39.575,37.793z"/>
			</g>
		</g>
		<g id="&#x424;&#x438;&#x433;&#x443;&#x440;&#x430;_14">
			<g>
				<polygon style="fill:#9F2865;" points="40.759,61.367 38.312,61.367 38.312,67.708 33.909,67.708 33.909,70.147 38.312,70.147 
					38.312,76 40.759,76 40.759,70.147 45.651,70.147 45.651,67.708 40.759,67.708 40.759,61.367 				"/>
			</g>
		</g>
		<g id="&#x42D;&#x43B;&#x43B;&#x438;&#x43F;&#x441;_11">
			<g>
				<ellipse style="fill-rule:evenodd;clip-rule:evenodd;fill:#FCFCFC;" cx="39.584" cy="49.981" rx="9.717" ry="9.763"/>
			</g>
		</g>
		<g id="&#x43C;&#x430;&#x440;&#x441;">
			<g id="&#x42D;&#x43B;&#x43B;&#x438;&#x43F;&#x441;_10_1_">
				<g>
					<ellipse style="fill-rule:evenodd;clip-rule:evenodd;fill:#1C9CAD;" cx="38.16" cy="53.434" rx="4.061" ry="4.079"/>
				</g>
				<g>
					<path style="fill:#1C9CAD;" d="M38.16,50.355c1.688,0,3.061,1.381,3.061,3.079c0,1.697-1.373,3.078-3.061,3.078
						S35.1,55.132,35.1,53.434C35.1,51.737,36.473,50.355,38.16,50.355 M38.16,48.355c-2.795,0-5.061,2.274-5.061,5.079
						c0,2.805,2.266,5.078,5.061,5.078s5.061-2.274,5.061-5.078C43.221,50.629,40.955,48.355,38.16,48.355L38.16,48.355z"/>
				</g>
			</g>
			<g id="&#x424;&#x438;&#x433;&#x443;&#x440;&#x430;_20">
				<g>
					<polygon style="fill:#1C9CAD;" points="42.907,46.054 40.551,50.129 41.571,50.717 43.927,46.642 42.907,46.054 					"/>
				</g>
			</g>
			<g id="&#x424;&#x438;&#x433;&#x443;&#x440;&#x430;_21">
				<g>
					<rect x="39.962" y="45.423" style="fill-rule:evenodd;clip-rule:evenodd;fill:#1C9CAD;" width="4.123" height="1.177"/>
				</g>
				<g>
					<polygon style="fill:#1C9CAD;" points="44.085,45.423 39.962,45.423 39.962,46.599 44.085,46.599 44.085,45.423 					"/>
				</g>
			</g>
			<g id="&#x424;&#x438;&#x433;&#x443;&#x440;&#x430;_22">
				<g>
					<polygon style="fill:#1C9CAD;" points="44.673,45.423 43.496,45.423 43.496,49.54 44.673,49.54 44.673,45.423 					"/>
				</g>
			</g>
		</g>
	</g>
</g>
<g id="&#x421;&#x43B;&#x43E;&#x439;_1">
</g>
</svg>
