<?xml version="1.0" encoding="iso-8859-1"?>
<!-- Generator: Adobe Illustrator 19.2.1, SVG Export Plug-In . SVG Version: 6.00 Build 0)  -->
<svg version="1.1" xmlns="http://www.w3.org/2000/svg" xmlns:xlink="http://www.w3.org/1999/xlink" x="0px" y="0px"
	 viewBox="0 0 77 77" style="enable-background:new 0 0 77 77;" xml:space="preserve">
<g id="_x32_0-rentgen">
	
		<g id="&#x41F;&#x440;&#x44F;&#x43C;&#x43E;&#x443;&#x433;&#x43E;&#x43B;&#x44C;&#x43D;&#x438;&#x43A;_x2C__&#x441;&#x43A;&#x440;&#x443;&#x433;&#x43B;._&#x443;&#x433;&#x43B;&#x44B;_1_3_">
		<g>
			<path style="fill-rule:evenodd;clip-rule:evenodd;fill:#D95397;" d="M54,34.999c-1.081-5.029-3.39-6.419-5-7c0,0-1.438,0.112-7-1
				c-0.549-0.11,0.776-4.71,0-5c-0.377-0.141-1.835,2-3,2c-1.126,0-1.46-1.229-3-2c-1.425-0.714-1.366,4.89-2,5
				c-4.363,0.754-6,1-6,1c-2.858,0.826-5.043,6.218-5.898,9.329c-0.738,2.687,2.946,3.788,2.946,3.788
				c2.175,2.874,8.995,2.995,14.779,2.894c5.789-0.102,13.861-0.505,16.173-3.381C56,40.629,54.783,38.644,54,34.999z"/>
		</g>
	</g>
	
		<g id="&#x41F;&#x440;&#x44F;&#x43C;&#x43E;&#x443;&#x433;&#x43E;&#x43B;&#x44C;&#x43D;&#x438;&#x43A;_x2C__&#x441;&#x43A;&#x440;&#x443;&#x433;&#x43B;._&#x443;&#x433;&#x43B;&#x44B;_6_2_">
		<g>
			<path style="fill-rule:evenodd;clip-rule:evenodd;fill:#FFFFFF;" d="M19.695,62.48c-2.206,0-4-1.794-4-4V39.679
				c0-2.206,1.794-4,4-4h38.199c2.206,0,4,1.794,4,4V58.48c0,2.206-1.794,4-4,4H19.695z"/>
		</g>
		<g>
			<path style="fill:#1C9CAD;" d="M57.893,36.679c1.654,0,3,1.346,3,3V58.48c0,1.654-1.346,3-3,3H19.695c-1.654,0-3-1.346-3-3
				V39.679c0-1.654,1.346-3,3-3H57.893 M57.893,34.679H19.695c-2.761,0-5,2.239-5,5V58.48c0,2.761,2.239,5,5,5h38.198
				c2.761,0,5-2.239,5-5V39.679C62.893,36.917,60.655,34.679,57.893,34.679L57.893,34.679z"/>
		</g>
	</g>
	<g id="&#x42D;&#x43B;&#x43B;&#x438;&#x43F;&#x441;_14">
		<g>
			<path style="fill:#1C9CAD;" d="M27.936,60.051c-1.574,0-1.574-4.371-1.574-7.264c0-4.36,4.205-8.792,6.554-8.792
				c0.658,0,1.06,1.229,1.241,1.963l0.232,0.939l0.632-0.733c0.626-0.726,1.503-1.892,2.123-3.321
				c0.676-1.56,0.654-3.719,0.599-4.725h0.971c-0.099,1.032-0.183,3.212,0.642,4.761c0.59,1.106,1.425,1.983,2.095,2.688l0.79,0.834
				l0.249-0.826c0.21-0.697,0.571-1.527,1.097-1.527c2.317,0,6.464,4.403,6.464,8.735c0,1.909-0.022,3.891-0.291,5.3
				c-0.365,1.911-1.032,1.917-1.254,1.917c-0.001,0-0.001,0-0.002,0c-0.141,0-0.302-0.029-0.477-0.087
				c-0.873-0.284-1.817-0.416-2.73-0.543c-2.045-0.284-3.301-0.52-3.353-1.719c-0.133-2.995-0.24-6.81,0.098-9.746l0.024-0.22
				l-0.144-0.166c-0.444-0.512-0.87-0.959-1.264-1.33c-1.134-1.069-2.3-1.241-2.349-1.248l-0.32-0.045l-0.172,0.274
				c0,0.001-0.252,0.386-0.948,1.01c-0.56,0.503-1.603,1.423-2.154,1.908l-0.191,0.167l0.023,0.254
				c0.266,2.902,0.161,6.428,0.04,9.175c-0.054,1.209-1.327,1.446-3.4,1.733c-0.925,0.128-1.882,0.26-2.766,0.547
				C28.243,60.021,28.08,60.051,27.936,60.051z"/>
		</g>
		<g>
			<path style="fill:#1C9CAD;" d="M38.201,40.448c0.081,0.897,0.282,1.857,0.712,2.665c0.61,1.147,1.452,2.038,2.136,2.757
				c-0.016-0.015-0.032-0.031-0.049-0.046c-1.228-1.157-2.483-1.36-2.622-1.379l-0.631-0.075L37.4,44.894
				c-0.002,0.003-0.234,0.349-0.864,0.914c-0.559,0.502-1.601,1.421-2.151,1.905l-0.154,0.136l1.17-1.359
				c0.65-0.754,1.559-1.965,2.202-3.449C37.945,42.249,38.119,41.318,38.201,40.448 M32.916,44.496c0.072,0,0.434,0.282,0.755,1.582
				l0.459,1.859l-0.127,0.112l0.046,0.506c0.264,2.875,0.159,6.377,0.038,9.107c-0.032,0.73-0.77,0.955-2.969,1.259
				c-0.947,0.131-1.926,0.266-2.851,0.567c-0.126,0.041-0.241,0.063-0.331,0.063c-1.074,0-1.074-4.914-1.074-6.764
				C26.863,48.757,30.799,44.496,32.916,44.496 M43.586,44.547c2.086,0,5.964,4.233,5.964,8.236c0,1.837,0,6.716-1.047,6.716
				c-0.087,0-0.198-0.021-0.321-0.062c-0.915-0.299-1.883-0.433-2.818-0.564c-2.164-0.301-2.89-0.524-2.922-1.246
				c-0.131-2.977-0.238-6.766,0.095-9.666l0.05-0.438l-0.287-0.33l0.168,0.178l0.499-1.652
				C43.241,44.814,43.52,44.564,43.586,44.547 M39.278,37.618h-2.075c0,0,0.329,3.07-0.519,5.026c-0.607,1.4-1.48,2.542-2.042,3.195
				c-0.349-1.413-0.892-2.342-1.726-2.342c-2.697,0-7.053,4.764-7.053,9.291c0,4.118,0.121,7.764,2.074,7.764
				c0.194,0,0.407-0.036,0.639-0.111c2.697-0.875,6.402-0.282,6.511-2.733c0.105-2.376,0.241-6.169-0.041-9.243
				c0.552-0.486,1.597-1.408,2.158-1.911c0.773-0.693,1.037-1.117,1.037-1.117s1.043,0.145,2.075,1.117
				c0.45,0.424,0.88,0.893,1.229,1.295c-0.362,3.149-0.212,7.298-0.101,9.825c0.107,2.436,3.766,1.847,6.428,2.716
				c0.229,0.075,0.439,0.111,0.631,0.111c1.928,0,2.047-3.623,2.047-7.716c0-4.501-4.301-9.236-6.964-9.236
				c-0.73,0-1.23,0.739-1.575,1.883c-0.698-0.739-1.6-1.633-2.214-2.787C38.772,40.719,39.278,37.618,39.278,37.618L39.278,37.618z"
				/>
		</g>
	</g>
	<g id="&#x43B;&#x438;&#x446;&#x43E;_1_">
		<g>
			<path style="fill-rule:evenodd;clip-rule:evenodd;fill:#D95397;" d="M38.104,6.992c-3.858,0-6.985,3.883-6.985,8.673
				c0,4.789,2.229,10.003,6.786,9.911c4.905-0.099,7.185-5.122,7.185-9.911C45.09,10.875,41.962,6.992,38.104,6.992z"/>
		</g>
	</g>
	<g id="_x31_0a">
		<g>
			<path style="fill:#7E2559;" d="M38.5,1.22c20.556,0,37.28,16.724,37.28,37.28S59.056,75.78,38.5,75.78S1.22,59.056,1.22,38.5
				S17.944,1.22,38.5,1.22 M38.5,0C17.237,0,0,17.237,0,38.5S17.237,77,38.5,77C59.763,77,77,59.763,77,38.5S59.763,0,38.5,0L38.5,0
				z"/>
		</g>
	</g>
</g>
<g id="&#x421;&#x43B;&#x43E;&#x439;_1">
</g>
</svg>
