<?xml version="1.0" encoding="iso-8859-1"?>
<!-- Generator: Adobe Illustrator 19.2.1, SVG Export Plug-In . SVG Version: 6.00 Build 0)  -->
<svg version="1.1" xmlns="http://www.w3.org/2000/svg" xmlns:xlink="http://www.w3.org/1999/xlink" x="0px" y="0px"
	 viewBox="0 0 77 77" style="enable-background:new 0 0 77 77;" xml:space="preserve">
<g id="_x33_-andrology">
	<g id="&#x41F;&#x440;&#x44F;&#x43C;&#x43E;&#x443;&#x433;&#x43E;&#x43B;&#x44C;&#x43D;&#x438;&#x43A;_4">
		<g>
			<path style="fill-rule:evenodd;clip-rule:evenodd;fill:#1C9CAD;" d="M58,23c0.308-7.232,1.703-12.034,1.703-12.034
				S48.517,7.911,42,8c-0.205,0.003-1.942,2-3,2c-1.235,0-2.602-2-3-2c-7.822,0-18.703,3.911-18.703,3.911s1.619,2.877,1.429,11.349
				c-0.098,4.382,6.194,18.595,8.1,24.588C27.221,49.088,25.748,49.791,25,52c-1.42,4.192-1.032,6.724-1.032,6.724S36.812,70,39,70
				c3.975,0,16-12,16-12s0.088-3.785-1-6c-1.605-3.268-2.19-4.257-2-5C53.609,40.708,57.697,30.114,58,23z"/>
		</g>
	</g>
	<g id="_x33_">
		<g>
			<path style="fill:#7E2559;" d="M38.5,1.22c20.556,0,37.28,16.724,37.28,37.28c0,20.556-16.724,37.28-37.28,37.28
				S1.22,59.056,1.22,38.5C1.22,17.944,17.944,1.22,38.5,1.22 M38.5,0C17.237,0,0,17.237,0,38.5C0,59.763,17.237,77,38.5,77
				C59.763,77,77,59.763,77,38.5C77,17.237,59.763,0,38.5,0L38.5,0z"/>
		</g>
	</g>
	<g id="&#x43A;&#x440;&#x435;&#x441;&#x442;">
		<g id="&#x42D;&#x43B;&#x43B;&#x438;&#x43F;&#x441;_12_2_">
			<g>
				<ellipse style="fill-rule:evenodd;clip-rule:evenodd;fill:#9F2865;" cx="39.502" cy="58.51" rx="13.507" ry="13.505"/>
			</g>
		</g>
		<g id="&#x42D;&#x43B;&#x43B;&#x438;&#x43F;&#x441;_13_2_">
			<g>
				<ellipse style="fill-rule:evenodd;clip-rule:evenodd;fill:#FFFFFF;" cx="39.502" cy="58.51" rx="11.048" ry="11.046"/>
			</g>
		</g>
		<g id="&#x41F;&#x440;&#x44F;&#x43C;&#x43E;&#x443;&#x433;&#x43E;&#x43B;&#x44C;&#x43D;&#x438;&#x43A;_3_2_">
			<g>
				<polygon style="fill:#9F2865;" points="47.486,56.051 41.962,56.051 41.962,50.528 37.043,50.528 37.043,56.051 31.519,56.051 
					31.519,60.969 37.043,60.969 37.043,66.492 41.962,66.492 41.962,60.969 47.486,60.969 				"/>
			</g>
		</g>
	</g>
</g>
<g id="&#x421;&#x43B;&#x43E;&#x439;_1">
</g>
</svg>
