<?xml version="1.0" encoding="iso-8859-1"?>
<!-- Generator: Adobe Illustrator 19.2.1, SVG Export Plug-In . SVG Version: 6.00 Build 0)  -->
<svg version="1.1" xmlns="http://www.w3.org/2000/svg" xmlns:xlink="http://www.w3.org/1999/xlink" x="0px" y="0px"
	 viewBox="0 0 77 77" style="enable-background:new 0 0 77 77;" xml:space="preserve">
<g id="_x35_-besplodie">
	<g id="&#x42D;&#x43B;&#x43B;&#x438;&#x43F;&#x441;_1_&#x43A;&#x43E;&#x43F;&#x438;&#x44F;_2">
		<g>
			<path style="fill:#892C63;" d="M38.5,1C59.178,1,76,17.822,76,38.5S59.178,76,38.5,76S1,59.178,1,38.5S17.822,1,38.5,1 M38.5,0
				C17.237,0,0,17.237,0,38.5S17.237,77,38.5,77C59.763,77,77,59.763,77,38.5S59.763,0,38.5,0L38.5,0z"/>
		</g>
	</g>
	<g id="&#x441;&#x438;&#x43B;&#x443;&#x44D;&#x442;_1_">
		<g>
			<path style="fill-rule:evenodd;clip-rule:evenodd;fill:#D95397;" d="M38.018,72.513c-0.275,0-0.554-0.004-0.833-0.012
				c-9.78-0.259-18.566-8.067-18.654-8.146l-0.038-0.034l-0.044-0.025c0.004,0-1.48-1.215,0.231-7.716
				c1.391-5.28,3.681-8.749,5.521-11.535c3.101-4.697,5.341-8.091,0.249-15.641c-5.163-7.656-2.917-12.094-2.893-12.138
				c0.082-0.168,1.822-3.638,7.177-4.12c0.244-0.022,0.498-0.032,0.759-0.032c3.329,0,7.875,1.633,9.189,2.133l0.089,0.034
				l0.161,0.023l1.532-0.021l-0.497-0.353c1.885-0.589,6.641-1.822,9.052-1.822c0.227,0,0.434,0.011,0.613,0.035
				c5.384,0.727,6.609,4.344,6.58,4.805c-0.16,0.699-0.166,1.401-0.173,2.145c-0.017,2.009-0.037,4.509-3.227,9.313
				c-4.366,6.579-2.388,10.07,0.606,15.355c1.674,2.952,3.756,6.628,5.167,11.821c1.693,6.234,0.592,7.813,0.581,7.828
				C59.118,64.454,50.89,72.513,38.018,72.513C38.018,72.513,38.019,72.513,38.018,72.513z"/>
		</g>
		<g>
			<path style="fill:#D95397;" d="M49.017,13.607c0.212,0,0.396,0.01,0.547,0.031c4.695,0.635,6.043,3.619,6.141,4.272
				c-0.156,0.739-0.161,1.439-0.168,2.179c-0.016,1.943-0.036,4.36-3.143,9.041c-4.536,6.835-2.387,10.628,0.588,15.878
				c1.659,2.929,3.725,6.574,5.119,11.707c1.447,5.327,0.8,7.099,0.671,7.375c-0.843,0.795-8.75,7.922-20.755,7.922
				c-0.271,0-0.544-0.004-0.82-0.011c-9.588-0.255-18.247-7.94-18.333-8.018l-0.076-0.069l-0.009-0.006
				c-0.147-0.19-1.073-1.669,0.384-7.202c1.37-5.201,3.635-8.632,5.454-11.388c3.207-4.859,5.525-8.369,0.247-16.196
				c-4.963-7.359-2.886-11.585-2.849-11.659c0.068-0.137,1.717-3.367,6.762-3.821c0.222-0.02,0.462-0.03,0.713-0.03
				c3.244,0,7.718,1.608,9.012,2.1c0.11,0.042,0.235,0.09,0.42,0.09c0.002,0,0.004,0,0.007,0l3.109-0.019l-0.943-0.668
				C43.274,14.499,46.99,13.607,49.017,13.607 M49.017,12.607c-3.228,0-10.276,2.066-10.094,2.195c0,0,0,0,0,0
				c-0.017,0-5.51-2.19-9.433-2.19c-0.276,0-0.545,0.011-0.803,0.034c-5.731,0.516-7.573,4.381-7.573,4.381
				s-2.508,4.607,2.919,12.655c7.862,11.658-2.085,12.519-5.839,26.77c-1.889,7.172,0,8.274,0,8.274s8.889,8.006,18.976,8.274
				c0.284,0.008,0.566,0.011,0.846,0.011c13.247,0,21.535-8.285,21.535-8.285s1.347-1.523-0.487-8.274
				c-3.871-14.251-12.486-16.753-5.839-26.77c4.438-6.686,2.894-9.101,3.473-11.647c0.136-0.599-1.283-4.616-7.003-5.389
				C49.498,12.62,49.269,12.607,49.017,12.607L49.017,12.607z"/>
		</g>
	</g>
	<g id="&#x44D;">
		<g>
			<path style="fill-rule:evenodd;clip-rule:evenodd;fill:#FCFCFC;" d="M52.264,48.332c-4.781-4.427-11.195,2.598-13.569,2.598
				c-1.34,0-8.981-6.246-10.338-4.546c-4.131,5.175,2.666,20.781,10.338,20.781S57.12,52.828,52.264,48.332z"/>
		</g>
	</g>
	<g id="&#x42D;&#x43B;&#x43B;&#x438;&#x43F;&#x441;_10">
		<g>
			<path style="fill:#DD8FB6;" d="M39.547,67.968c-0.124-0.033-0.217-0.095-0.281-0.297l-0.165-0.52l0.414-1.806
				c0.143-0.606,0.266-1.131,0.256-1.525c-0.024-0.921,1.825-2.83,3.457-4.515c2.532-2.614,5.15-5.317,4.938-7.597
				c-0.075-0.808-0.501-1.491-1.264-2.031c-0.285-0.201-0.73-0.303-1.324-0.303c-0.022,0-2.267,0.012-2.612,1.002
				c-0.622,1.781-2.588,2.552-3.453,2.552c-0.096,0-0.165-0.009-0.212-0.02l0.007-0.2l0.13-0.36
				c0.168-0.463,0.467-0.982,0.755-1.485c0.329-0.573,0.64-1.114,0.807-1.632c0.205-0.636,1.25-0.978,2.261-1.308
				c0.776-0.254,1.579-0.517,2.13-0.954c0.906-0.721,1.797-0.726,3.415-0.735c1.369-0.008,3.243-0.02,5.896-0.532
				c1.66-0.322,2.65-2.589,3.607-4.781c0.609-1.396,1.239-2.838,1.962-3.564c1.708-1.716,0.519-4.938-0.858-8.668
				c-1.083-2.936-2.312-6.263-2.245-9.232c0.029-1.329-0.457-2.497-0.887-3.528c-0.658-1.58-0.955-2.441,0.05-3.247
				c0.709-0.568,1.431-0.856,2.145-0.856c1.227,0,2.523,0.836,3.854,2.486c5.065,6.285,8.525,21.487,8.146,23.237
				c-0.712,3.283-4.367,7.394-10.863,12.218c-0.484,0.359-0.628,0.468-0.707,0.551c-2.944,3.116-3.899,5.309-4.667,7.069
				c-0.997,2.287-1.718,3.939-6.326,6.438c-0.134,0.072-0.399,0.227-0.76,0.435c-1.585,0.918-6.406,3.71-7.567,3.71L39.547,67.968z
				 M38.27,67.562c-1.186,0.001-5.973-2.783-7.547-3.698c-0.362-0.21-0.629-0.365-0.763-0.438c-4.581-2.494-5.297-4.145-6.288-6.428
				c-0.763-1.759-1.713-3.947-4.641-7.06c-0.079-0.084-0.222-0.191-0.706-0.552c-6.458-4.816-10.092-8.921-10.8-12.198
				c-0.379-1.758,3.07-16.972,8.123-23.233c1.314-1.627,2.595-2.453,3.806-2.453c0.708,0,1.425,0.287,2.129,0.854
				c0.999,0.804,0.704,1.665,0.049,3.243c-0.427,1.029-0.911,2.196-0.882,3.522c0.066,2.965-1.155,6.288-2.233,9.22
				c-1.369,3.725-2.551,6.941-0.853,8.654c0.718,0.725,1.345,2.166,1.951,3.559c0.952,2.189,1.937,4.454,3.589,4.775
				c2.638,0.513,4.502,0.523,5.863,0.532c1.608,0.01,2.493,0.015,3.393,0.732c0.548,0.438,1.347,0.7,2.12,0.954
				c1.004,0.329,2.042,0.671,2.246,1.305c0.166,0.517,0.477,1.058,0.805,1.631c0.358,0.624,0.729,1.271,0.848,1.805l0.051,0.229
				c-0.043,0.012-0.116,0.024-0.23,0.024c-0.858,0-2.808-0.768-3.424-2.543c-0.344-0.991-2.579-1.002-2.602-1.002
				c-0.591,0-1.035,0.102-1.317,0.302c-0.759,0.54-1.183,1.222-1.257,2.028c-0.212,2.275,2.392,4.976,4.911,7.586
				c1.622,1.683,3.461,3.589,3.437,4.509c-0.01,0.393,0.111,0.913,0.252,1.517c0.055,0.234,0.112,0.479,0.162,0.722l0.306,1.481
				l-0.33,0.325C38.388,67.516,38.337,67.545,38.27,67.562C38.27,67.562,38.27,67.562,38.27,67.562z"/>
		</g>
		<g>
			<path style="fill:#FCFCFC;" d="M19.454,12.001c0.6,0,1.194,0.243,1.816,0.744c0.68,0.547,0.581,1.022-0.099,2.662
				c-0.446,1.075-0.952,2.293-0.92,3.725c0.064,2.871-1.14,6.146-2.202,9.036c-1.428,3.885-2.661,7.24-0.739,9.179
				c0.652,0.658,1.26,2.055,1.847,3.406c1.004,2.308,2.042,4.695,3.952,5.066c2.684,0.522,4.575,0.534,5.956,0.542
				c1.65,0.01,2.349,0.037,3.084,0.624c0.618,0.493,1.46,0.77,2.275,1.037c0.76,0.25,1.801,0.591,1.927,0.983
				c0.182,0.567,0.52,1.156,0.847,1.726c0.245,0.428,0.497,0.866,0.656,1.25c-0.85-0.202-2.078-0.919-2.505-2.148
				c-0.452-1.301-2.806-1.338-3.072-1.338c-0.698,0-1.239,0.133-1.609,0.396c-0.883,0.627-1.376,1.431-1.465,2.389
				c-0.233,2.504,2.452,5.288,5.049,7.98c1.32,1.369,3.316,3.437,3.297,4.148c-0.012,0.457,0.116,1.007,0.265,1.643
				c0.054,0.23,0.11,0.47,0.159,0.71l0.251,1.217l-0.08,0.077c-0.513-0.076-2.129-0.693-7.174-3.626
				c-0.365-0.212-0.636-0.369-0.771-0.443c-4.43-2.413-5.082-3.915-6.069-6.188c-0.779-1.794-1.748-4.027-4.735-7.203
				c-0.108-0.115-0.238-0.214-0.771-0.611c-6.359-4.742-9.928-8.747-10.61-11.902c-0.349-1.787,3.146-16.892,8.103-22.912
				C17.302,12.731,18.424,12.001,19.454,12.001 M58.473,12.326c1.043,0,2.18,0.739,3.38,2.197c4.97,6.038,8.48,21.139,8.131,22.92
				c-0.686,3.161-4.276,7.172-10.672,11.921c-0.535,0.397-0.665,0.495-0.774,0.61c-3.004,3.18-3.979,5.416-4.762,7.213
				c-0.993,2.277-1.649,3.781-6.105,6.198c-0.136,0.074-0.408,0.231-0.776,0.444c-4.942,2.861-6.613,3.522-7.174,3.624l-0.103-0.321
				l0.309-1.351l0.076-0.327c0.15-0.638,0.279-1.19,0.267-1.648c-0.019-0.711,1.988-2.782,3.316-4.153
				c2.611-2.695,5.311-5.482,5.077-7.99c-0.089-0.96-0.585-1.765-1.473-2.393c-0.37-0.262-0.913-0.395-1.614-0.395
				c-0.268,0-2.631,0.038-3.084,1.338c-0.43,1.232-1.668,1.952-2.527,2.155c0.161-0.388,0.414-0.828,0.659-1.256
				c0.327-0.571,0.666-1.16,0.849-1.728c0.127-0.393,1.175-0.736,1.94-0.986c0.818-0.268,1.664-0.544,2.285-1.038
				c0.741-0.589,1.445-0.617,3.107-0.626c1.388-0.008,3.29-0.019,5.988-0.542c1.918-0.372,2.961-2.761,3.97-5.072
				c0.591-1.353,1.202-2.752,1.858-3.411c1.933-1.942,0.693-5.302-0.743-9.193c-1.068-2.894-2.279-6.174-2.215-9.048
				c0.032-1.435-0.477-2.655-0.925-3.731c-0.684-1.64-0.783-2.116-0.099-2.664C57.269,12.57,57.868,12.326,58.473,12.326
				 M19.454,11.001c-7.126,0-12.952,23.821-12.418,26.292c1.28,5.927,11.245,12.577,11.63,12.988
				c6.675,7.096,2.758,9.065,11.055,13.584c0.834,0.454,6.991,4.199,8.518,4.199c0.059,0,0.112-0.006,0.157-0.017
				c0.166-0.043,0.291-0.124,0.393-0.224c0.098,0.309,0.289,0.54,0.635,0.63c0.045,0.012,0.098,0.017,0.158,0.017
				c1.536,0,7.728-3.75,8.566-4.205c8.344-4.525,4.405-6.498,11.118-13.604c0.388-0.41,10.409-7.071,11.696-13.006
				c0.537-2.474-5.322-26.329-12.488-26.329c-0.805,0-1.626,0.3-2.457,0.966c-2.245,1.8,0.718,4.102,0.65,7.153
				c-0.15,6.718,5.975,14.819,3.249,17.558c-1.913,1.922-2.925,7.745-5.31,8.207c-5.705,1.105-7.609-0.157-9.527,1.367
				c-1.209,0.961-4.085,1.043-4.555,2.5c-0.297,0.92-1.184,2.077-1.556,3.101c-0.248-1.107-1.332-2.444-1.665-3.479
				c-0.468-1.455-3.327-1.537-4.53-2.496c-1.907-1.522-3.801-0.262-9.473-1.366c-2.372-0.461-3.378-6.275-5.28-8.195
				c-2.711-2.735,3.38-10.825,3.231-17.533c-0.068-3.047,2.879-5.347,0.646-7.143C21.071,11.302,20.254,11.001,19.454,11.001
				L19.454,11.001z M38.952,65.558c-0.171-0.828-0.416-1.655-0.404-2.125c0.078-2.966-11.921-10.446-7.302-13.727
				c0.206-0.146,0.594-0.211,1.03-0.211c0.895,0,1.991,0.272,2.128,0.666c0.679,1.954,2.78,2.879,3.896,2.879
				c0.208,0,0.382-0.032,0.506-0.096c-0.001,0.03-0.01,0.062-0.009,0.091c0.009,0.26,0.291,0.392,0.715,0.392
				c1.123,0,3.242-0.928,3.925-2.886c0.138-0.395,1.24-0.667,2.14-0.667c0.438,0,0.828,0.065,1.036,0.211
				c4.645,3.286-7.421,10.776-7.343,13.747C39.281,64.226,39.109,64.872,38.952,65.558L38.952,65.558z"/>
		</g>
	</g>
	<g id="_x35_">
		<g>
			<path style="fill:#7E2559;" d="M38.5,1.22c20.556,0,37.28,16.724,37.28,37.28S59.056,75.78,38.5,75.78S1.22,59.056,1.22,38.5
				S17.944,1.22,38.5,1.22 M38.5,0C17.237,0,0,17.237,0,38.5S17.237,77,38.5,77C59.763,77,77,59.763,77,38.5S59.763,0,38.5,0L38.5,0
				z"/>
		</g>
	</g>
</g>
<g id="&#x421;&#x43B;&#x43E;&#x439;_1">
</g>
</svg>
