<?xml version="1.0" encoding="iso-8859-1"?>
<!-- Generator: Adobe Illustrator 19.2.1, SVG Export Plug-In . SVG Version: 6.00 Build 0)  -->
<svg version="1.1" xmlns="http://www.w3.org/2000/svg" xmlns:xlink="http://www.w3.org/1999/xlink" x="0px" y="0px"
	 viewBox="0 0 77 77" style="enable-background:new 0 0 77 77;" xml:space="preserve">
<g id="_x36_-obsledovaniya">
	
		<g id="&#x41F;&#x440;&#x44F;&#x43C;&#x43E;&#x443;&#x433;&#x43E;&#x43B;&#x44C;&#x43D;&#x438;&#x43A;_x2C__&#x441;&#x43A;&#x440;&#x443;&#x433;&#x43B;._&#x443;&#x433;&#x43B;&#x44B;_1_2_">
		<g>
			<path style="fill-rule:evenodd;clip-rule:evenodd;fill:#CDE8EC;" d="M21.607,59.397c-5.6,0-9.738-0.925-13.417-3l0,0
				c0.007,0-3.354-2.561-2.717-4.881c1.061-3.858,3.25-8.313,5.554-8.981c0,0,0,0,0,0c0.027,0,1.724-0.257,5.947-0.987
				c0.602-0.104,0.775-0.862,1.062-2.118c0.245-1.071,0.58-2.539,1.155-2.977c0.319-0.242,0.5-0.279,0.58-0.279
				c0.261,0,0.511,0.544,0.712,0.981c0.302,0.656,0.644,1.4,1.406,1.4c1.02,0,1.55-1.006,1.9-1.671
				c0.009-0.018,0.019-0.036,0.029-0.054c0.199,0.516,0.447,1.518,0.597,2.12c0.418,1.687,0.61,2.375,1.153,2.485
				c4.576,0.915,5.873,1.083,6.214,1.113c1.51,0.56,3.599,1.873,4.618,6.612c0.621,2.887,1.503,4.75,1.881,5.462
				c-2.478,2.631-10.17,4.67-15.678,4.767C22.267,59.395,21.936,59.397,21.607,59.397z"/>
		</g>
		<g>
			<path style="fill:#5B9BAB;" d="M19.696,36.717c0.108,0.157,0.244,0.454,0.333,0.647c0.31,0.674,0.778,1.691,1.861,1.691
				c0.816,0,1.381-0.48,1.778-1.007c0.098,0.358,0.19,0.73,0.263,1.022c0.443,1.784,0.665,2.679,1.541,2.855
				c4.227,0.845,5.693,1.062,6.197,1.115c1.394,0.531,3.29,1.789,4.244,6.226c0.551,2.563,1.311,4.348,1.757,5.255
				c-2.441,2.21-9.403,4.269-15.075,4.368c-0.333,0.006-0.661,0.009-0.986,0.009c-5.479,0-9.527-0.896-13.114-2.903
				c-0.853-0.656-2.985-2.721-2.538-4.346c1.047-3.811,3.147-7.97,5.155-8.616c0.363-0.056,2.075-0.323,5.948-0.992
				c0.931-0.161,1.155-1.141,1.465-2.499c0.189-0.826,0.54-2.363,0.97-2.691C19.58,36.785,19.647,36.744,19.696,36.717
				 M19.771,35.674c-0.24,0-0.528,0.111-0.883,0.381c-1.268,0.966-1.366,4.891-2,5c-4.363,0.754-6,1-6,1
				c-2.858,0.827-5.043,6.218-5.898,9.329c-0.738,2.687,2.953,5.449,2.953,5.449c4.034,2.274,8.346,3.064,13.663,3.064
				c0.331,0,0.665-0.003,1.004-0.009c5.789-0.101,13.966-2.327,16.278-5.203c0,0-1.217-1.986-2-5.63c-1.081-5.028-3.39-6.419-5-7h0
				c-0.003,0-0.674-0.001-6.222-1.111c-0.549-0.11-1.058-4.599-1.833-4.889c-0.012-0.004-0.024-0.007-0.036-0.007
				c-0.367,0-0.781,2.007-1.908,2.007C20.963,38.055,20.882,35.674,19.771,35.674L19.771,35.674z"/>
		</g>
	</g>
	
		<g id="&#x41F;&#x440;&#x44F;&#x43C;&#x43E;&#x443;&#x433;&#x43E;&#x43B;&#x44C;&#x43D;&#x438;&#x43A;_x2C__&#x441;&#x43A;&#x440;&#x443;&#x433;&#x43B;._&#x443;&#x433;&#x43B;&#x44B;_6_1_">
		<g>
			<path style="fill-rule:evenodd;clip-rule:evenodd;fill:#FFFFFF;" d="M36.813,63.769c-2.9,0-5.26-1.798-5.26-4.008V21.501
				c0-2.21,2.359-4.008,5.26-4.008h23.54c2.9,0,5.26,1.798,5.26,4.008v38.259c0,2.21-2.359,4.008-5.26,4.008H36.813z"/>
		</g>
		<g>
			<path style="fill:#1C9CAD;" d="M60.353,18.494c2.309,0,4.26,1.377,4.26,3.008v38.259c0,1.63-1.951,3.008-4.26,3.008H36.814
				c-2.309,0-4.26-1.377-4.26-3.008V21.501c0-1.63,1.951-3.008,4.26-3.008H60.353 M60.353,16.494H36.814
				c-3.457,0-6.26,2.242-6.26,5.008v38.259c0,2.766,2.803,5.008,6.26,5.008h23.539c3.457,0,6.26-2.242,6.26-5.008V21.501
				C66.613,18.736,63.81,16.494,60.353,16.494L60.353,16.494z"/>
		</g>
	</g>
	<g id="&#x43B;&#x438;&#x446;&#x43E;">
		<g>
			<path style="fill-rule:evenodd;clip-rule:evenodd;fill:#DD8FB6;" d="M20.993,19.826c-3.858,0-6.985,3.883-6.985,8.672
				c0,4.79,2.229,10.004,6.786,9.912c4.905-0.1,7.185-5.122,7.185-9.912C27.978,23.709,24.851,19.826,20.993,19.826z"/>
		</g>
	</g>
	<g id="&#x424;&#x438;&#x433;&#x443;&#x440;&#x430;_1">
		<g>
			<path style="fill:#FCFCFC;" d="M45.111,51.444v-0.223h14.277v0.223H45.111z M45.111,40.444v-0.223h14.277v0.223H45.111z
				 M45.111,29.444v-0.222h14.277v0.222H45.111z"/>
		</g>
		<g>
			<path style="fill:#5B9BAB;" d="M59.889,28.722H44.611v1.222h15.278V28.722L59.889,28.722z M59.889,39.722H44.611v1.223h15.278
				V39.722L59.889,39.722z M59.889,50.722H44.611v1.222h15.278V50.722L59.889,50.722z"/>
		</g>
	</g>
	<g id="&#x41C;&#x43D;&#x43E;&#x433;&#x43E;&#x443;&#x433;&#x43E;&#x43B;&#x44C;&#x43D;&#x438;&#x43A;_1_3_">
		<g>
			<path style="fill:#D95397;" d="M35.169,48.891c2.285,1.722,2.561,1.722,2.708,1.722h0.059l0.069-0.015
				c0.478-0.115,2.345-1.801,4.287-3.653l-4.485,6.837L35.169,48.891z M34.558,37.279c2.272,1.712,2.558,1.722,2.706,1.722
				c0.001,0,0.062,0,0.062,0l0.069-0.015c0.477-0.115,2.343-1.799,4.286-3.652l-4.485,6.836L34.558,37.279z M34.558,26.28
				c2.269,1.709,2.558,1.721,2.706,1.721c0.001,0,0.063,0,0.063,0l0.07-0.016c0.476-0.114,2.342-1.799,4.285-3.652l-4.485,6.836
				L34.558,26.28z"/>
		</g>
		<g>
			<path style="fill:#D95397;" d="M39.074,27.395l-1.837,2.8l-1.21-2.244c0.84,0.55,1.041,0.55,1.238,0.55l0.13-0.001l0.115-0.028
				C37.654,28.438,37.919,28.374,39.074,27.395 M39.074,38.395l-1.837,2.8l-1.21-2.244c0.84,0.55,1.041,0.55,1.239,0.55l0.13-0.001
				l0.115-0.028C37.654,39.438,37.919,39.374,39.074,38.395 M39.685,50.006l-1.836,2.799l-1.21-2.244
				c0.84,0.55,1.041,0.55,1.239,0.55l0.131-0.001l0.116-0.028C38.266,51.049,38.53,50.985,39.685,50.006 M44.611,20.777
				c0,0-6.594,6.545-7.333,6.722c-0.003,0.001-0.007,0.001-0.012,0.001c-0.382,0-4.266-3.057-4.266-3.057l4.153,7.701L44.611,20.777
				L44.611,20.777z M44.611,31.777c0,0-6.594,6.544-7.333,6.722c-0.003,0.001-0.007,0.001-0.012,0.001
				c-0.382,0-4.266-3.056-4.266-3.056l4.153,7.701L44.611,31.777L44.611,31.777z M45.222,43.389c0,0-6.594,6.544-7.333,6.722
				c-0.003,0.001-0.007,0.001-0.012,0.001c-0.381,0-4.266-3.057-4.266-3.057l4.154,7.701L45.222,43.389L45.222,43.389z"/>
		</g>
	</g>
	
		<g id="&#x41F;&#x440;&#x44F;&#x43C;&#x43E;&#x443;&#x433;&#x43E;&#x43B;&#x44C;&#x43D;&#x438;&#x43A;_x2C__&#x441;&#x43A;&#x440;&#x443;&#x433;&#x43B;._&#x443;&#x433;&#x43B;&#x44B;_7_1_">
		<g>
			<path style="fill-rule:evenodd;clip-rule:evenodd;fill:#FCFCFC;" d="M14.667,27c-0.215,0-0.497-0.028-0.622-0.16
				c-0.2-0.211-0.167-0.815-0.133-1.456c0.016-0.297,0.033-0.612,0.033-0.939v-4.889c0-1.409,1.146-2.555,2.556-2.555h9.167
				c1.409,0,2.556,1.146,2.556,2.555v4.889c0,0.327,0.017,0.643,0.033,0.939c0.035,0.641,0.067,1.245-0.133,1.456
				C27.997,26.972,27.715,27,27.5,27H14.667z"/>
		</g>
		<g>
			<path style="fill:#5B9BAB;" d="M25.667,17.5c1.133,0,2.056,0.922,2.056,2.055v4.889c0,0.337,0.017,0.661,0.033,0.966
				c0.019,0.35,0.047,0.863-0.004,1.068c-0.045,0.01-0.124,0.021-0.252,0.021H14.667c-0.128,0-0.207-0.012-0.252-0.021
				c-0.05-0.204-0.023-0.717-0.004-1.068c0.016-0.305,0.033-0.63,0.033-0.966v-4.889c0-1.133,0.922-2.055,2.056-2.055H25.667
				 M25.667,16.5H16.5c-1.688,0-3.056,1.368-3.056,3.055v4.889c0,1.687-0.465,3.055,1.222,3.055H27.5
				c1.688,0,1.222-1.368,1.222-3.055v-4.889C28.722,17.868,27.354,16.5,25.667,16.5L25.667,16.5z"/>
		</g>
	</g>
	
		<g id="&#x41F;&#x440;&#x44F;&#x43C;&#x43E;&#x443;&#x433;&#x43E;&#x43B;&#x44C;&#x43D;&#x438;&#x43A;_3_&#x43A;&#x43E;&#x43F;&#x438;&#x44F;_1_">
		<g>
			<polygon style="fill:#1C9CAD;" points="25.662,20.684 22.703,20.684 22.703,17.725 20.071,17.725 20.071,20.684 17.111,20.684 
				17.111,23.315 20.071,23.315 20.071,26.274 22.703,26.274 22.703,23.315 25.662,23.315 			"/>
		</g>
	</g>
	<g id="_x36_">
		<g>
			<path style="fill:#7E2559;" d="M38.5,1.22c20.556,0,37.28,16.724,37.28,37.28S59.056,75.78,38.5,75.78S1.22,59.056,1.22,38.5
				S17.944,1.22,38.5,1.22 M38.5,0C17.237,0,0,17.237,0,38.5C0,59.763,17.237,77,38.5,77C59.763,77,77,59.763,77,38.5
				C77,17.237,59.763,0,38.5,0L38.5,0z"/>
		</g>
	</g>
</g>
<g id="&#x421;&#x43B;&#x43E;&#x439;_1">
</g>
</svg>
