<?xml version="1.0" encoding="iso-8859-1"?>
<!-- Generator: Adobe Illustrator 19.2.1, SVG Export Plug-In . SVG Version: 6.00 Build 0)  -->
<svg version="1.1" xmlns="http://www.w3.org/2000/svg" xmlns:xlink="http://www.w3.org/1999/xlink" x="0px" y="0px"
	 viewBox="0 0 77 77" style="enable-background:new 0 0 77 77;" xml:space="preserve">
<g id="_x37_-sheyka">
	<g id="&#x42D;&#x43B;&#x43B;&#x438;&#x43F;&#x441;_6_2_">
		<g>
			<path style="fill:#D95397;" d="M23.689,61.831c-5,0-11.472-4.318-12.009-9.68c-0.373-3.718,0.836-7.88,3.079-10.603
				c1.494-1.813,3.322-2.868,5.288-3.051c0.519-0.048,1.124-0.073,1.798-0.073c5.544,0,14.421,1.633,15.87,5.138
				c0.089,0.216,0.193,0.433,0.296,0.647c0.502,1.042,0.584,1.392,0.163,1.702c-2.291,1.689-3.648,4.491-4.96,7.201
				c-1.716,3.543-3.49,7.207-7.362,8.409C25.192,61.728,24.465,61.831,23.689,61.831C23.689,61.831,23.689,61.831,23.689,61.831z
				 M54.417,46.866c-4.63,0-8.274-0.994-9.998-2.728c-0.181-0.182-0.376-0.359-0.569-0.534c-0.939-0.853-1.206-1.206-0.935-1.62
				c1.453-2.219,2.199-5.6,2.921-8.87c1.028-4.659,2.091-9.477,5.123-10.749c1.414-0.593,2.954-0.894,4.577-0.894
				c4.627,0,8.867,2.422,11.065,6.32c1.819,3.226,2.112,8.107,0.729,12.145c-0.956,2.79-2.563,4.78-4.524,5.604
				C60.854,46.357,57.64,46.866,54.417,46.866C54.417,46.866,54.417,46.866,54.417,46.866z M38.763,40.944
				c-0.147,0-0.303-0.068-0.475-0.209c-2.424-1.977-6.11-3.396-9.675-4.769c-5.133-1.976-10.44-4.019-11.921-7.67
				C14.35,22.523,15.799,14.65,22.226,12c1.553-0.641,3.452-0.979,5.491-0.979c5.423,0,11.911,2.462,13.82,7.167
				c2.033,5.016,2.903,18.052-0.895,21.321c-0.195,0.168-0.387,0.354-0.575,0.538C39.613,40.488,39.145,40.944,38.763,40.944
				L38.763,40.944z"/>
		</g>
		<g>
			<path style="fill:#CB76A9;" d="M27.717,11.52c5.255,0,11.53,2.355,13.356,6.855c2.166,5.341,2.616,17.851-0.757,20.754
				c-0.203,0.175-0.402,0.368-0.598,0.559c-0.271,0.264-0.777,0.757-0.955,0.757c0,0-0.052-0.009-0.159-0.096
				c-2.485-2.028-6.21-3.462-9.812-4.849c-5.033-1.937-10.237-3.941-11.636-7.391c-2.252-5.552-0.881-13.113,5.262-15.647
				C23.91,11.846,25.743,11.52,27.717,11.52 M55.537,21.971c4.447,0,8.52,2.324,10.629,6.065c1.753,3.11,2.031,7.827,0.691,11.738
				c-0.909,2.653-2.416,4.536-4.244,5.303c-1.895,0.795-5.036,1.289-8.196,1.289c-4.431,0-8.036-0.965-9.643-2.58
				c-0.187-0.188-0.389-0.371-0.589-0.553c-0.313-0.284-0.838-0.76-0.878-0.927c0,0,0.005-0.016,0.026-0.048
				c1.503-2.295,2.259-5.722,2.991-9.036c1.001-4.535,2.036-9.223,4.829-10.395C52.506,22.259,53.981,21.971,55.537,21.971
				 M21.845,38.925c5.623,0,14.106,1.678,15.407,4.828c0.093,0.225,0.201,0.45,0.308,0.673c0.156,0.323,0.417,0.864,0.388,1.02
				c0,0-0.015,0.024-0.07,0.065c-2.391,1.763-3.775,4.621-5.114,7.385c-1.746,3.606-3.396,7.012-7.06,8.15
				c-0.612,0.19-1.29,0.286-2.015,0.286c-4.766,0-11.014-4.259-11.511-9.229c-0.36-3.593,0.805-7.611,2.968-10.236
				c0.981-1.191,2.636-2.656,4.948-2.871C20.596,38.948,21.186,38.925,21.845,38.925 M27.718,10.52
				c-2.049,0-4.017,0.331-5.682,1.017c-6.413,2.645-8.43,10.48-5.807,16.947c2.623,6.468,15.904,7.874,21.743,12.639
				c0.278,0.227,0.54,0.321,0.791,0.321c0.781,0,1.457-0.913,2.206-1.557c4.009-3.45,3.136-16.701,1.032-21.888
				C40.058,13.211,33.562,10.52,27.718,10.52L27.718,10.52z M55.537,20.971c-1.653,0-3.282,0.309-4.771,0.933
				c-5.492,2.304-4.802,14.511-8.269,19.806c-0.68,1.039,0.647,1.855,1.568,2.781c2.055,2.067,6.257,2.875,10.352,2.875
				c3.338,0,6.605-0.537,8.583-1.367c5.492-2.304,7.393-12.502,4.037-18.454C64.59,23.206,59.982,20.971,55.537,20.971
				L55.537,20.971z M21.845,37.925C21.153,37.925,20.53,37.95,20,38c-5.767,0.538-9.448,7.901-8.818,14.202
				c0.548,5.475,7.155,10.129,12.506,10.129c0.807,0,1.586-0.106,2.311-0.331c7.1-2.204,7.321-11.887,12.471-15.685
				c1.011-0.746,0.156-1.852-0.295-2.944C36.558,39.454,27.182,37.925,21.845,37.925L21.845,37.925z"/>
		</g>
	</g>
	<g id="&#x42D;&#x43B;&#x43B;&#x438;&#x43F;&#x441;_8_1_">
		<g>
			<ellipse style="fill-rule:evenodd;clip-rule:evenodd;fill:#D95397;" cx="39.953" cy="42.875" rx="1.109" ry="1.125"/>
		</g>
		<g>
			<path style="fill:#CB76A9;" d="M39.953,42.25c0.336,0,0.609,0.28,0.609,0.625S40.289,43.5,39.953,43.5s-0.609-0.28-0.609-0.625
				S39.617,42.25,39.953,42.25 M39.953,41.25c-0.889,0-1.609,0.728-1.609,1.625c0,0.898,0.721,1.625,1.609,1.625
				c0.889,0,1.609-0.727,1.609-1.625C41.563,41.977,40.842,41.25,39.953,41.25L39.953,41.25z"/>
		</g>
	</g>
	<g id="&#x42D;&#x43B;&#x43B;&#x438;&#x43F;&#x441;_9">
		<g>
			<path style="fill-rule:evenodd;clip-rule:evenodd;fill:#5B9BAB;" d="M43.474,71.849c-0.987,0-1.746-0.041-2.207-0.084
				c0.273-0.62,0.523-1.18,0.754-1.692c1.551-3.462,2.193-4.896,2.281-8.549c0.143-5.948-0.593-11.051-2.13-14.854
				c2.086,1.295,6.422,4.964,6.987,13.243c0.068,1,0.161,1.78,0.242,2.468c0.277,2.343,0.416,3.519-1.035,8.793
				C48.203,71.424,46.723,71.849,43.474,71.849C43.474,71.849,43.474,71.849,43.474,71.849z"/>
		</g>
		<g>
			<path style="fill:#5B9BAB;" d="M43.178,47.979c2.12,1.73,5.027,5.289,5.483,11.968c0.069,1.015,0.162,1.8,0.244,2.493
				c0.266,2.251,0.402,3.394-0.969,8.417c-0.424,0.209-1.879,0.492-4.46,0.492c-0.57,0-1.064-0.014-1.463-0.034
				c0.163-0.367,0.318-0.712,0.464-1.038c1.581-3.528,2.235-4.988,2.325-8.741C44.927,56.266,44.369,51.644,43.178,47.979
				 M41.159,45.594c-0.116,0,2.912,4.65,2.643,15.918c-0.101,4.23-0.926,5.306-3.238,10.612c-0.048,0.11,1.294,0.225,2.912,0.225
				c2.297,0,5.151-0.232,5.374-1.042c1.9-6.906,1.113-6.98,0.809-11.428C48.891,48.635,41.377,45.594,41.159,45.594L41.159,45.594z"
				/>
		</g>
	</g>
	<g id="_x37_">
		<g>
			<path style="fill:#7E2559;" d="M38.5,1.22c20.556,0,37.28,16.724,37.28,37.28c0,20.556-16.724,37.28-37.28,37.28
				S1.22,59.056,1.22,38.5C1.22,17.944,17.944,1.22,38.5,1.22 M38.5,0C17.237,0,0,17.237,0,38.5C0,59.763,17.237,77,38.5,77
				C59.763,77,77,59.763,77,38.5C77,17.237,59.763,0,38.5,0L38.5,0z"/>
		</g>
	</g>
</g>
<g id="&#x421;&#x43B;&#x43E;&#x439;_1">
</g>
</svg>
