<?xml version="1.0" encoding="utf-8"?>
<!-- Generator: Adobe Illustrator 17.1.0, SVG Export Plug-In . SVG Version: 6.00 Build 0)  -->
<!DOCTYPE svg PUBLIC "-//W3C//DTD SVG 1.1//EN" "http://www.w3.org/Graphics/SVG/1.1/DTD/svg11.dtd">
<svg version="1.1" id="Layer_1" xmlns="http://www.w3.org/2000/svg" xmlns:xlink="http://www.w3.org/1999/xlink" x="0px" y="0px"
	 viewBox="0 0 87.3 87.3" enable-background="new 0 0 87.3 87.3" xml:space="preserve">
<circle fill="none" stroke="#7F265A" stroke-width="1.2" stroke-miterlimit="10" cx="43.7" cy="43.7" r="43.1"/>
<path fill="#DC8FB6" d="M43.3,76c-0.9-0.4-1.2-1.1-1.2-2c0.1-1.2,0-2.4,0-3.6c0-0.3-0.1-0.6-0.4-0.8c-1.9-1.7-3.6-3.5-5-5.6
	c-1.3-1.9-2.3-4-2.5-6.4c-0.1-1.8,0.1-3.6,0.8-5.3c0.2-0.5,0.2-1,0.1-1.5c-0.5-1.9-1.8-3.1-3.7-3.6c-1.5-0.4-2.9-0.3-4.3,0.4
	c-1.6,0.8-2.7,2.1-2.7,4c0,2,1,3.3,2.7,4.2c0.2,0.1,0.4,0.2,0.5,0.2c0.1,0,0.1,0,0.2,0c0.3-0.7,0.8-1.2,1.6-1.3
	c1.4-0.2,2.5,1.2,2,2.5c-0.1,0.2-0.1,0.5-0.1,0.8c0,0.8-0.6,1.4-1.4,1.4c-2.4,0-4.5-0.8-6.2-2.5c-1.6-1.5-2.4-3.4-2.3-5.6
	c0.1-2.8,1.5-4.9,3.9-6.3c2.6-1.6,5.4-1.6,8.2-0.5c1.8,0.8,3.1,2,4,3.8c0,0.1,0.1,0.2,0.2,0.3c4-2.3,7.9-2.3,11.9,0
	c0.4-0.5,0.7-1.1,1.1-1.7c0.8-1.1,1.9-1.9,3.2-2.4c1.8-0.8,3.6-0.9,5.5-0.5c4,0.9,6.9,4.3,6.4,8.3c-0.4,3.2-2.2,5.3-5.2,6.5
	c-1,0.4-2,0.6-3.1,0.6c-1,0-1.6-0.6-1.6-1.6c0-0.1,0-0.3-0.1-0.4c-0.4-1.1,0-2.1,1-2.5c0.9-0.4,2,0,2.5,0.9c0,0.1,0.1,0.1,0.1,0.2
	c1.3-0.5,2.3-1.3,3-2.5c1.2-2.3-0.1-5-2.3-6c-2.3-1.1-4.4-0.8-6.4,0.7c-1.1,0.8-1.6,2-1.7,3.3c0,0.2,0.1,0.4,0.1,0.6
	c1.4,3.5,1.2,6.9-0.6,10.3c-1.5,2.8-3.6,5.1-6,7.2c-0.3,0.2-0.4,0.5-0.4,0.9c0,1.2,0,2.4,0,3.6c0,1-0.2,1.7-1.2,2
	C43.8,76,43.5,76,43.3,76z M43.6,67.2c0.2-0.1,0.2-0.2,0.3-0.2c1.6-1.5,3.1-3,4.2-4.9c0.7-1.1,1.2-2.2,1.7-3.4
	c0.6-1.5,0.4-3.1,0-4.6c-0.4-1.7-1.4-2.9-3-3.6c-1.4-0.6-2.8-0.7-4.3-0.5c-1.8,0.2-3.4,1-4.3,2.7c-1.2,2.3-1.3,4.7-0.2,7.1
	c0.6,1.4,1.3,2.6,2.3,3.7C41.3,64.8,42.4,66,43.6,67.2z"/>
<path fill="#BF5595" d="M65.1,18.1c0.6,0.3,1.1,0.7,1.1,1.4c0,0.4-0.1,0.8-0.4,1.1c-1.5,1.6-2.1,3.5-2.4,5.6
	c-0.4,3.9,0.5,7.5,1.9,11c0.9,2.1,1.9,4.2,2.9,6.3c1.6,3.5,2.8,7.2,3.2,11.1c0.2,2.8-0.1,5.5-0.8,8.1c-0.4,1.5-0.9,3-1.4,4.5
	c-0.3,0.9-1.2,1.3-2,1c-0.7-0.3-1.1-1.1-0.8-2c0.5-1.6,1.1-3.2,1.5-4.8c0.8-3.1,0.9-6.2,0.2-9.3c-0.5-2.5-1.4-4.8-2.4-7.1
	c-1.2-2.6-2.5-5.2-3.5-7.9c-1.2-3-1.9-6.2-1.8-9.5c0.1-2.7,0.7-5.3,2.2-7.6c0.5-0.8,1-1.5,1.9-1.9C64.6,18.1,64.9,18.1,65.1,18.1z"
	/>
<path fill="#BF5595" d="M22.9,18.1c0.8,0.3,1.3,1.1,1.8,1.8c1.3,2,2,4.3,2.2,6.6c0.3,4-0.5,7.7-2,11.4C24.1,40,23.1,42,22.1,44
	c-1.9,4.1-3.4,8.3-3.3,12.9c0,2.4,0.6,4.7,1.3,7c0.3,0.8,0.6,1.7,0.9,2.5c0.3,0.8-0.1,1.7-0.9,1.9c-0.8,0.3-1.6-0.1-1.9-0.8
	c-1.3-3.5-2.4-7.1-2.4-10.9c0-2.2,0.3-4.3,0.9-6.4c0.8-3,2-5.8,3.3-8.6c1.3-2.6,2.5-5.3,3.3-8.2c0.5-2,0.8-4.1,0.7-6.2
	c-0.1-2.3-0.7-4.5-2.3-6.3c-0.4-0.4-0.6-0.8-0.5-1.4c0.1-0.7,0.6-1.1,1.2-1.3C22.5,18.1,22.7,18.1,22.9,18.1z"/>
<path fill="#209DAD" d="M52.2,16.4h-4.8v-4.8c0-0.7-0.6-1.3-1.3-1.3h-4.8c-0.7,0-1.3,0.6-1.3,1.3v4.8h-4.8c-0.7,0-1.3,0.6-1.3,1.3
	v4.8c0,0.7,0.6,1.3,1.3,1.3h4.8v4.8c0,0.7,0.6,1.3,1.3,1.3h4.8c0.7,0,1.3-0.6,1.3-1.3v-4.8h4.8c0.7,0,1.3-0.6,1.3-1.3v-4.8
	C53.5,17,52.9,16.4,52.2,16.4z"/>
</svg>
