<?xml version="1.0" encoding="iso-8859-1"?>
<!-- Generator: Adobe Illustrator 19.2.1, SVG Export Plug-In . SVG Version: 6.00 Build 0)  -->
<svg version="1.1" xmlns="http://www.w3.org/2000/svg" xmlns:xlink="http://www.w3.org/1999/xlink" x="0px" y="0px"
	 viewBox="0 0 77 77" style="enable-background:new 0 0 77 77;" xml:space="preserve">
<g id="_x39_-shkola-mam">
	<g id="_x39_">
		<g>
			<path style="fill:#7E2559;" d="M38.5,1.22c20.556,0,37.28,16.724,37.28,37.28S59.056,75.78,38.5,75.78S1.22,59.056,1.22,38.5
				S17.944,1.22,38.5,1.22 M38.5,0C17.237,0,0,17.237,0,38.5S17.237,77,38.5,77C59.763,77,77,59.763,77,38.5S59.763,0,38.5,0L38.5,0
				z"/>
		</g>
	</g>
	<g id="&#x43A;&#x43E;&#x43B;&#x44F;&#x441;&#x43A;&#x430;_&#x43A;&#x43E;&#x43F;&#x438;&#x44F;">
		<g id="&#x41F;&#x440;&#x44F;&#x43C;&#x43E;&#x443;&#x433;&#x43E;&#x43B;&#x44C;&#x43D;&#x438;&#x43A;_2">
			<g>
				<path style="fill:#DA5397;" d="M15.97,42.329l3.263,5.753l0.798-0.454l-3.263-5.752L15.97,42.329z M32.719,41.853l-3.244,5.795
					l0.794,0.457l3.244-5.795L32.719,41.853z"/>
			</g>
		</g>
		<g id="&#x41F;&#x440;&#x44F;&#x43C;&#x43E;&#x443;&#x433;&#x43E;&#x43B;&#x44C;&#x43D;&#x438;&#x43A;_3_3_">
			<g>
				<rect x="19.194" y="46.816" style="fill-rule:evenodd;clip-rule:evenodd;fill:#DA5397;" width="9.546" height="0.735"/>
			</g>
		</g>
		
			<g id="&#x41F;&#x440;&#x44F;&#x43C;&#x43E;&#x443;&#x433;&#x43E;&#x43B;&#x44C;&#x43D;&#x438;&#x43A;_x2C__&#x441;&#x43A;&#x440;&#x443;&#x433;&#x43B;._&#x443;&#x433;&#x43B;&#x44B;_1">
			<g>
				<path style="fill-rule:evenodd;clip-rule:evenodd;fill:#DA5397;" d="M36.45,33.036l-22.764,0.367
					c-0.52,0.23-0.889,0.604,0,4.042c0.918,3.552,2.51,6.431,6.058,6.431h9.73c3.549,0,5.732-2.948,6.425-6.431
					C36.542,34.216,36.603,33.082,36.45,33.036z"/>
			</g>
		</g>
		<g id="&#x42D;&#x43B;&#x43B;&#x438;&#x43F;&#x441;_2">
			<g>
				<path style="fill-rule:evenodd;clip-rule:evenodd;fill:#DA5397;" d="M35.92,27.831c0.019-0.745-2.149-1.909-2.649-2.45
					c-0.602-0.652-1.289-1.919-2.119-2.275c-0.773-0.331-2.636-0.35-3.532-0.35c-0.945,0-2.861-0.96-3.709-0.7
					c-0.821,0.251-0.745,9.096-1.413,11.553c-0.044,0.162,7.555,0.993,10.95,0.175c0.298-0.072,3.002-0.037,3.002-0.35
					C36.45,32.586,35.829,31.37,35.92,27.831z"/>
			</g>
		</g>
		
			<g id="&#x41F;&#x440;&#x44F;&#x43C;&#x43E;&#x443;&#x433;&#x43E;&#x43B;&#x44C;&#x43D;&#x438;&#x43A;_x2C__&#x441;&#x43A;&#x440;&#x443;&#x433;&#x43B;._&#x443;&#x433;&#x43B;&#x44B;_2">
			<g>
				<path style="fill-rule:evenodd;clip-rule:evenodd;fill:#DA5397;" d="M14.421,33.587l-4.222-4.042
					c-0.119-0.28-1.371-2.335-2.019-1.653c-0.688,0.723,0.93,2.358,1.102,2.572l0.551,0.184c0.119,0.28,3.575,3.61,3.855,3.491
					C13.966,34.019,14.539,33.867,14.421,33.587z"/>
			</g>
		</g>
		<g id="&#x41C;&#x43D;&#x43E;&#x433;&#x43E;&#x443;&#x433;&#x43E;&#x43B;&#x44C;&#x43D;&#x438;&#x43A;_1">
			<g>
				<path style="fill:#FFFFFF;" d="M29.088,35.837c-0.34-0.499-0.959-1.042-2.365-0.64c-0.851,0.243-1.289,1.097-1.381,1.295
					c-0.122-0.249-0.556-1.017-1.364-1.247c-1.411-0.401-2.032,0.14-2.373,0.637c-1.178,1.717,0.596,3.643,1.554,4.469
					c0.567,0.489,1.884,1.443,2.163,1.644v0.028c0,0,0.015-0.011,0.019-0.014c0.016,0.012,0.041,0.029,0.041,0.029V41.98
					c0.279-0.203,1.591-1.161,2.156-1.652C28.493,39.498,30.263,37.564,29.088,35.837z"/>
			</g>
		</g>
		<g id="&#x42D;&#x43B;&#x43B;&#x438;&#x43F;&#x441;_3">
			<g>
				<ellipse style="fill-rule:evenodd;clip-rule:evenodd;fill:#DA5397;" cx="18.046" cy="50.951" rx="4.039" ry="4.042"/>
			</g>
		</g>
		<g id="&#x42D;&#x43B;&#x43B;&#x438;&#x43F;&#x441;_3_&#x43A;&#x43E;&#x43F;&#x438;&#x44F;">
			<g>
				<ellipse style="fill-rule:evenodd;clip-rule:evenodd;fill:#FFFFFF;" cx="18" cy="50.951" rx="3.396" ry="3.399"/>
			</g>
		</g>
		<g id="&#x42D;&#x43B;&#x43B;&#x438;&#x43F;&#x441;_3_&#x43A;&#x43E;&#x43F;&#x438;&#x44F;_2">
			<g>
				<ellipse style="fill-rule:evenodd;clip-rule:evenodd;fill:#DA5397;" cx="32.044" cy="49.94" rx="4.957" ry="4.961"/>
			</g>
		</g>
		<g id="&#x42D;&#x43B;&#x43B;&#x438;&#x43F;&#x441;_3_&#x43A;&#x43E;&#x43F;&#x438;&#x44F;_3">
			<g>
				<ellipse style="fill-rule:evenodd;clip-rule:evenodd;fill:#FFFFFF;" cx="31.988" cy="49.94" rx="4.168" ry="4.172"/>
			</g>
		</g>
		<g id="&#x41F;&#x440;&#x44F;&#x43C;&#x43E;&#x443;&#x433;&#x43E;&#x43B;&#x44C;&#x43D;&#x438;&#x43A;_1">
			<g>
				<path style="fill:#DA5397;" d="M20.856,48.482l-0.389-0.39l-2.191,2.193v-3.101h-0.551v3.101l-2.191-2.193l-0.389,0.39
					l2.191,2.193h-3.099v0.551h3.099l-2.191,2.193l0.389,0.39l2.191-2.193v3.101h0.551v-3.101l2.191,2.193l0.389-0.39l-2.191-2.193
					h3.099v-0.551h-3.099L20.856,48.482z M36.267,49.631H32.79l2.458-2.46l-0.437-0.437l-2.458,2.46v-3.479h-0.618v3.479
					l-2.458-2.46L28.84,47.17l2.458,2.46h-3.476v0.619h3.476l-2.458,2.46l0.437,0.438l2.458-2.46v3.48h0.618v-3.48l2.458,2.46
					l0.437-0.438l-2.458-2.46h3.476V49.631z"/>
			</g>
		</g>
	</g>
	<g id="&#x43A;&#x43E;&#x43B;&#x44F;&#x441;&#x43A;&#x430;_&#x43A;&#x43E;&#x43F;&#x438;&#x44F;_2">
		<g id="&#x41F;&#x440;&#x44F;&#x43C;&#x43E;&#x443;&#x433;&#x43E;&#x43B;&#x44C;&#x43D;&#x438;&#x43A;_2_2_">
			<g>
				<path style="fill:#1C9CAD;" d="M61.232,41.876l-3.263,5.752l0.798,0.454l3.263-5.753L61.232,41.876z M44.487,42.31l3.244,5.795
					l0.794-0.457l-3.244-5.795L44.487,42.31z"/>
			</g>
		</g>
		<g id="&#x41F;&#x440;&#x44F;&#x43C;&#x43E;&#x443;&#x433;&#x43E;&#x43B;&#x44C;&#x43D;&#x438;&#x43A;_3_4_">
			<g>
				<rect x="49.26" y="46.816" style="fill-rule:evenodd;clip-rule:evenodd;fill:#1C9CAD;" width="9.546" height="0.735"/>
			</g>
		</g>
		
			<g id="&#x41F;&#x440;&#x44F;&#x43C;&#x43E;&#x443;&#x433;&#x43E;&#x43B;&#x44C;&#x43D;&#x438;&#x43A;_x2C__&#x441;&#x43A;&#x440;&#x443;&#x433;&#x43B;._&#x443;&#x433;&#x43B;&#x44B;_1_2_">
			<g>
				<path style="fill-rule:evenodd;clip-rule:evenodd;fill:#1C9CAD;" d="M64.314,33.403L41.55,33.036
					c-0.152,0.046-0.092,1.18,0.551,4.41c0.693,3.483,2.877,6.431,6.425,6.431h9.73c3.549,0,5.14-2.879,6.058-6.431
					C65.202,34.007,64.833,33.633,64.314,33.403z"/>
			</g>
		</g>
		<g id="&#x42D;&#x43B;&#x43B;&#x438;&#x43F;&#x441;_2_2_">
			<g>
				<path style="fill-rule:evenodd;clip-rule:evenodd;fill:#1C9CAD;" d="M54.089,22.055c-0.847-0.26-2.764,0.7-3.709,0.7
					c-0.896,0-2.759,0.019-3.532,0.35c-0.83,0.356-1.517,1.623-2.119,2.275c-0.5,0.541-2.668,1.706-2.649,2.45
					c0.091,3.539-0.53,4.754-0.53,5.601c0,0.313,2.704,0.278,3.002,0.35c3.395,0.818,10.994-0.013,10.95-0.175
					C54.834,31.152,54.909,22.307,54.089,22.055z"/>
			</g>
		</g>
		
			<g id="&#x41F;&#x440;&#x44F;&#x43C;&#x43E;&#x443;&#x433;&#x43E;&#x43B;&#x44C;&#x43D;&#x438;&#x43A;_x2C__&#x441;&#x43A;&#x440;&#x443;&#x433;&#x43B;._&#x443;&#x433;&#x43B;&#x44B;_2_2_">
			<g>
				<path style="fill-rule:evenodd;clip-rule:evenodd;fill:#1C9CAD;" d="M69.821,27.892c-0.648-0.681-1.901,1.373-2.019,1.653
					l-4.222,4.042c-0.119,0.281,0.454,0.433,0.734,0.551c0.28,0.119,3.737-3.21,3.855-3.491l0.551-0.184
					C68.891,30.25,70.509,28.615,69.821,27.892z"/>
			</g>
		</g>
		<g id="&#x41C;&#x43D;&#x43E;&#x433;&#x43E;&#x443;&#x433;&#x43E;&#x43B;&#x44C;&#x43D;&#x438;&#x43A;_1_2_">
			<g>
				<path style="fill:#FFFFFF;" d="M56.396,35.883c-0.341-0.497-0.962-1.038-2.373-0.637c-0.808,0.229-1.242,0.998-1.364,1.247
					c-0.092-0.198-0.53-1.052-1.381-1.295c-1.406-0.402-2.026,0.14-2.365,0.64c-1.175,1.726,0.594,3.661,1.55,4.491
					c0.565,0.491,1.877,1.449,2.156,1.652v0.059c0,0,0.025-0.018,0.041-0.029c0.004,0.003,0.019,0.014,0.019,0.014v-0.028
					c0.279-0.201,1.596-1.155,2.163-1.644C55.799,39.526,57.574,37.6,56.396,35.883z"/>
			</g>
		</g>
		<g id="&#x42D;&#x43B;&#x43B;&#x438;&#x43F;&#x441;_3_2_">
			<g>
				<ellipse style="fill-rule:evenodd;clip-rule:evenodd;fill:#1C9CAD;" cx="59.954" cy="50.951" rx="4.039" ry="4.042"/>
			</g>
		</g>
		<g id="&#x42D;&#x43B;&#x43B;&#x438;&#x43F;&#x441;_3_&#x43A;&#x43E;&#x43F;&#x438;&#x44F;_2_">
			<g>
				<ellipse style="fill-rule:evenodd;clip-rule:evenodd;fill:#FFFFFF;" cx="59.999" cy="50.951" rx="3.396" ry="3.399"/>
			</g>
		</g>
		<g id="&#x42D;&#x43B;&#x43B;&#x438;&#x43F;&#x441;_3_&#x43A;&#x43E;&#x43F;&#x438;&#x44F;_2_2_">
			<g>
				<ellipse style="fill-rule:evenodd;clip-rule:evenodd;fill:#1C9CAD;" cx="45.956" cy="49.94" rx="4.957" ry="4.961"/>
			</g>
		</g>
		<g id="&#x42D;&#x43B;&#x43B;&#x438;&#x43F;&#x441;_3_&#x43A;&#x43E;&#x43F;&#x438;&#x44F;_3_2_">
			<g>
				<ellipse style="fill-rule:evenodd;clip-rule:evenodd;fill:#FFFFFF;" cx="46.012" cy="49.94" rx="4.168" ry="4.172"/>
			</g>
		</g>
		<g id="&#x41F;&#x440;&#x44F;&#x43C;&#x43E;&#x443;&#x433;&#x43E;&#x43B;&#x44C;&#x43D;&#x438;&#x43A;_1_2_">
			<g>
				<path style="fill:#1C9CAD;" d="M63.763,50.675h-3.099l2.191-2.193l-0.389-0.39l-2.191,2.193v-3.101h-0.551v3.101l-2.191-2.193
					l-0.389,0.39l2.191,2.193h-3.099v0.551h3.099l-2.191,2.193l0.389,0.39l2.191-2.193v3.101h0.551v-3.101l2.191,2.193l0.389-0.39
					l-2.191-2.193h3.099V50.675z M49.16,47.17l-0.437-0.437l-2.458,2.46v-3.479h-0.618v3.479l-2.458-2.46l-0.437,0.437l2.458,2.46
					h-3.476v0.619h3.476l-2.458,2.46l0.437,0.438l2.458-2.46v3.48h0.618v-3.48l2.458,2.46l0.437-0.438l-2.458-2.46h3.476v-0.619
					h-3.476L49.16,47.17z"/>
			</g>
		</g>
	</g>
</g>
<g id="&#x421;&#x43B;&#x43E;&#x439;_1">
</g>
</svg>
