<?xml version="1.0" standalone="no"?>
<svg width="1024" height="768" xmlns:xlink="http://www.w3.org/1999/xlink" xmlns="http://www.w3.org/2000/svg">
 <!-- Created with SVG-edit - http://svg-edit.googlecode.com/ -->
 <g>
  <rect stroke-width="5" stroke="#000000" fill="#000000" id="svg_2" height="375.163" width="380.115941" y="151.178415" x="330.543478"/>
  <rect stroke-width="0" stroke="#000000" fill="#ffffff" id="svg_10" height="381.099124" width="75.782609" y="147.616741" x="408.731884"/>
  <rect stroke-width="0" stroke="#000000" fill="#ffffff" id="svg_11" height="66.484582" width="163.594203" y="291.270927" x="453.23913"/>
  <rect stroke-width="0" stroke="#000000" fill="#ffffff" id="svg_12" height="169.77313" width="63.753623" y="132.18282" x="581.949275"/>
  <ellipse ry="32.055066" rx="32.478261" stroke-width="0" stroke="#000000" fill="#ffffff" id="svg_13" cy="300.768725" cx="613.224637"/>
  <ellipse ry="33.24229" rx="34.483091" stroke-width="0" stroke="#000000" fill="#ffffff" id="svg_14" cy="362.504409" cx="618.838163"/>
  <rect stroke-width="0" stroke="#000000" fill="#ffffff" id="svg_15" height="155.526434" width="157.57971" y="495.473573" x="443.615942"/>
  <rect stroke-width="0" stroke="#000000" fill="#ffffff" id="svg_16" height="24.931718" width="25.26087" y="353.006611" x="591.572463"/>
  <rect stroke-width="0" stroke="#000000" fill="#ffffff" id="svg_17" height="137.718063" width="37.289855" y="349.444937" x="587.963768"/>
  <rect stroke-width="0" stroke="#000000" fill="#ffffff" id="svg_18" height="125.845817" width="30.072464" y="358.942734" x="613.224637"/>
  <rect stroke-width="0" stroke="#000000" fill="#ffffff" id="svg_19" height="147.61161" width="31.275363" y="358.942734" x="621.644927"/>
  <rect stroke-width="0" stroke="#000000" fill="#ffffff" id="svg_20" height="13.455213" width="0.801932" y="485.184292" x="588.364734"/>
  <rect stroke-width="0" stroke="#000000" fill="#ffffff" id="svg_21" height="57.382526" width="47.31401" y="479.248169" x="590.770531"/>
  <rect stroke-width="0" stroke="#000000" fill="#ffffff" id="svg_22" height="20.974303" width="12.429952" y="481.622618" x="588.364734"/>
  <rect stroke-width="0" stroke="#000000" fill="#ffffff" id="svg_23" height="142.071221" width="13.63285" y="353.402352" x="583.152173"/>
  <ellipse ry="26.910426" rx="27.2657" stroke-width="0" stroke="#000000" fill="#ffffff" id="svg_24" cy="506.950078" cx="625.253623"/>
  <rect stroke-width="0" stroke="#000000" fill="#ffffff" id="svg_25" height="22.557269" width="22.855072" y="473.707787" x="627.258454"/>
  <rect stroke-width="0" stroke="#000000" fill="#ffffff" id="svg_26" height="28.097651" width="28.468599" y="349.840678" x="618.036231"/>
  <ellipse ry="22.557269" rx="20.850242" stroke-width="0" stroke="#000000" fill="#ffffff" id="svg_27" cy="362.504408" cx="629.664251"/>
  <rect stroke-width="0" stroke="#000000" fill="#ffffff" id="svg_28" height="37.595448" width="184.043478" y="159.884729" x="434.39372"/>
  <rect stroke-width="0" stroke="#000000" fill="#ffffff" id="svg_29" height="34.825257" width="134.724637" y="147.616741" x="468.475845"/>
  <rect stroke-width="0" stroke="#000000" fill="#ffffff" id="svg_30" height="20.578561" width="47.31401" y="522.779741" x="409.533816"/>
  <rect stroke-dasharray="null" stroke-width="0" stroke="#000000" fill="#000000" id="svg_32" height="24.931719" width="385.729456" y="123.773311" x="327.937198"/>
  <ellipse ry="13.752019" rx="6.164855" stroke-dasharray="null" stroke-width="0" stroke="#000000" fill="#ffffff" id="svg_33" cy="152.167768" cx="414.696256"/>
  <ellipse id="svg_34" ry="10.041942" rx="5.563406" stroke-dasharray="null" stroke-width="0" stroke="#000000" fill="#ffffff" cy="148.101525" cx="640.17959"/>
  <rect stroke-dasharray="null" stroke-width="0" stroke="#000000" fill="#ffffff" id="svg_35" height="25.525331" width="225.302864" y="138.118943" x="414.325378"/>
  <ellipse ry="9.497797" rx="204.492753" stroke-dasharray="null" stroke-width="0" stroke="#000000" fill="#000000" id="svg_36" cy="121.497797" cx="520"/>
  <ellipse ry="214.887668" rx="55.333333" stroke-dasharray="null" stroke-width="5" stroke="#000000" fill="#000000" id="svg_37" cy="335.198241" cx="326.333333"/>
  <ellipse id="svg_38" ry="214.887668" rx="55.333333" stroke-dasharray="null" stroke-width="5" stroke="#000000" fill="#000000" cy="335.198241" cx="713.666666"/>
  <ellipse ry="4.748899" rx="196.072463" stroke-dasharray="null" stroke-width="5" stroke="#000000" fill="#000000" id="svg_39" cy="549.294425" cx="518.26248"/>
  <rect stroke-dasharray="null" stroke-width="5" stroke="#000000" fill="#000000" id="svg_40" height="11.91602" width="354.186785" y="531.310366" x="345.178755"/>
  <path stroke-dasharray="null" stroke-width="5" stroke="#000000" fill="#000000" id="svg_41" d="m433.563141,552.799561l54.302277,8.140991l50.865417,69.537476l38.149048,-67.841431l50.865479,-11.533081l24.401611,-7.123352l-177.857117,1.356812"/>
  <title>Layer 1</title>
 </g>
</svg>